<?xml version="1.0" encoding="UTF-8" standalone="no"?>
<svg width="481px" height="462px" viewBox="0 0 481 462" version="1.1" xmlns="http://www.w3.org/2000/svg" xmlns:xlink="http://www.w3.org/1999/xlink">
    <!-- Generator: Sketch 50.2 (55047) - http://www.bohemiancoding.com/sketch -->
    <title>analyse</title>
    <desc>Created with Sketch.</desc>
    <defs>
        <rect id="path-1" x="0" y="0" width="405" height="236" rx="6"></rect>
        <filter x="-3.2%" y="-4.7%" width="106.4%" height="111.0%" filterUnits="objectBoundingBox" id="filter-2">
            <feOffset dx="0" dy="2" in="SourceAlpha" result="shadowOffsetOuter1"></feOffset>
            <feGaussianBlur stdDeviation="4" in="shadowOffsetOuter1" result="shadowBlurOuter1"></feGaussianBlur>
            <feComposite in="shadowBlurOuter1" in2="SourceAlpha" operator="out" result="shadowBlurOuter1"></feComposite>
            <feColorMatrix values="0 0 0 0 0   0 0 0 0 0   0 0 0 0 0  0 0 0 0.3 0" type="matrix" in="shadowBlurOuter1"></feColorMatrix>
        </filter>
        <rect id="path-3" x="0" y="0" width="43" height="34"></rect>
        <filter x="-9.3%" y="-11.8%" width="123.3%" height="129.4%" filterUnits="objectBoundingBox" id="filter-4">
            <feOffset dx="1" dy="1" in="SourceAlpha" result="shadowOffsetOuter1"></feOffset>
            <feGaussianBlur stdDeviation="1.5" in="shadowOffsetOuter1" result="shadowBlurOuter1"></feGaussianBlur>
            <feColorMatrix values="0 0 0 0 0   0 0 0 0 0   0 0 0 0 0  0 0 0 0.3 0" type="matrix" in="shadowBlurOuter1"></feColorMatrix>
        </filter>
        <filter x="-14.0%" y="-11.8%" width="123.3%" height="129.4%" filterUnits="objectBoundingBox" id="filter-5">
            <feOffset dx="-1" dy="1" in="SourceAlpha" result="shadowOffsetOuter1"></feOffset>
            <feGaussianBlur stdDeviation="1.5" in="shadowOffsetOuter1" result="shadowBlurOuter1"></feGaussianBlur>
            <feColorMatrix values="0 0 0 0 0   0 0 0 0 0   0 0 0 0 0  0 0 0 0.4 0" type="matrix" in="shadowBlurOuter1" result="shadowMatrixOuter1"></feColorMatrix>
            <feMerge>
                <feMergeNode in="shadowMatrixOuter1"></feMergeNode>
                <feMergeNode in="SourceGraphic"></feMergeNode>
            </feMerge>
        </filter>
        <rect id="path-6" x="0" y="0" width="43" height="34"></rect>
        <filter x="-14.0%" y="-11.8%" width="123.3%" height="129.4%" filterUnits="objectBoundingBox" id="filter-7">
            <feOffset dx="-1" dy="1" in="SourceAlpha" result="shadowOffsetOuter1"></feOffset>
            <feGaussianBlur stdDeviation="1.5" in="shadowOffsetOuter1" result="shadowBlurOuter1"></feGaussianBlur>
            <feColorMatrix values="0 0 0 0 0   0 0 0 0 0   0 0 0 0 0  0 0 0 0.4 0" type="matrix" in="shadowBlurOuter1"></feColorMatrix>
        </filter>
        <rect id="path-8" x="0" y="0" width="196" height="278" rx="6"></rect>
        <filter x="-6.6%" y="-4.0%" width="113.3%" height="109.4%" filterUnits="objectBoundingBox" id="filter-9">
            <feOffset dx="0" dy="2" in="SourceAlpha" result="shadowOffsetOuter1"></feOffset>
            <feGaussianBlur stdDeviation="4" in="shadowOffsetOuter1" result="shadowBlurOuter1"></feGaussianBlur>
            <feComposite in="shadowBlurOuter1" in2="SourceAlpha" operator="out" result="shadowBlurOuter1"></feComposite>
            <feColorMatrix values="0 0 0 0 0   0 0 0 0 0   0 0 0 0 0  0 0 0 0.3 0" type="matrix" in="shadowBlurOuter1"></feColorMatrix>
        </filter>
        <filter x="-3.9%" y="-2.1%" width="107.8%" height="105.8%" filterUnits="objectBoundingBox" id="filter-10">
            <feOffset dx="0" dy="2" in="SourceAlpha" result="shadowOffsetOuter1"></feOffset>
            <feGaussianBlur stdDeviation="2" in="shadowOffsetOuter1" result="shadowBlurOuter1"></feGaussianBlur>
            <feColorMatrix values="0 0 0 0 0   0 0 0 0 0   0 0 0 0 0  0 0 0 0.3 0" type="matrix" in="shadowBlurOuter1" result="shadowMatrixOuter1"></feColorMatrix>
            <feMerge>
                <feMergeNode in="shadowMatrixOuter1"></feMergeNode>
                <feMergeNode in="SourceGraphic"></feMergeNode>
            </feMerge>
        </filter>
        <filter x="-6.3%" y="-2.5%" width="112.6%" height="107.0%" filterUnits="objectBoundingBox" id="filter-11">
            <feOffset dx="0" dy="2" in="SourceAlpha" result="shadowOffsetOuter1"></feOffset>
            <feGaussianBlur stdDeviation="2" in="shadowOffsetOuter1" result="shadowBlurOuter1"></feGaussianBlur>
            <feColorMatrix values="0 0 0 0 0   0 0 0 0 0   0 0 0 0 0  0 0 0 0.3 0" type="matrix" in="shadowBlurOuter1" result="shadowMatrixOuter1"></feColorMatrix>
            <feMerge>
                <feMergeNode in="shadowMatrixOuter1"></feMergeNode>
                <feMergeNode in="SourceGraphic"></feMergeNode>
            </feMerge>
        </filter>
    </defs>
    <g id="analyse" stroke="none" stroke-width="1" fill="none" fill-rule="evenodd">
        <g id="Group-5" transform="translate(243.013804, 155.200012) rotate(5.000000) translate(-243.013804, -155.200012) translate(40.513804, 37.200012)">
            <g id="wireframe">
                <g id="Rectangle-2">
                    <use fill="black" fill-opacity="1" filter="url(#filter-2)" xlink:href="#path-1"></use>
                    <rect stroke="#D7D7D7" stroke-width="1" stroke-linejoin="square" fill="#FAFAFA" fill-rule="evenodd" x="0.5" y="0.5" width="404" height="235" rx="6"></rect>
                </g>
                <g id="Group-2" transform="translate(30.000000, 36.000000)">
                    <rect id="Rectangle-3" stroke="#E9E9E9" fill="#FFFFFF" x="0.5" y="0.5" width="25" height="46" rx="4"></rect>
                    <rect id="Rectangle-4" stroke="#D3D3D3" fill="#E0F3FF" x="2.5" y="3.5" width="21" height="38"></rect>
                    <rect id="Rectangle-15" fill="#83ACED" x="3" y="4" width="20" height="4"></rect>
                    <rect id="Rectangle-15-Copy" fill="#646E7E" x="3" y="36" width="20" height="5"></rect>
                    <rect id="Rectangle-5" fill="#8A96AB" x="5.5" y="37" width="3" height="3"></rect>
                    <rect id="Rectangle-5-Copy" fill="#8A96AB" x="11.5" y="37" width="3" height="3"></rect>
                    <rect id="Rectangle-5-Copy-2" fill="#8A96AB" x="17.5" y="37" width="3" height="3"></rect>
                </g>
                <rect id="Rectangle-7" fill="#E7F6FF" x="119" y="30" width="136" height="60"></rect>
                <rect id="Rectangle-7-Copy" fill="#FFE7E7" x="24" y="146" width="79" height="60"></rect>
                <g id="Group-2-Copy" transform="translate(126.000000, 36.000000)">
                    <rect id="Rectangle-3" stroke="#E9E9E9" fill="#FFFFFF" x="0.5" y="0.5" width="25" height="46" rx="4"></rect>
                    <rect id="Rectangle-4" stroke="#D3D3D3" fill="#E0F3FF" x="2.5" y="3.5" width="21" height="38"></rect>
                    <rect id="Rectangle-15" fill="#83ACED" x="3" y="4" width="20" height="4"></rect>
                    <rect id="Rectangle-15-Copy" fill="#646E7E" x="3" y="36" width="20" height="5"></rect>
                    <rect id="Rectangle-5" fill="#8A96AB" x="5.5" y="37" width="3" height="3"></rect>
                    <rect id="Rectangle-5-Copy" fill="#8A96AB" x="11.5" y="37" width="3" height="3"></rect>
                    <rect id="Rectangle-5-Copy-2" fill="#8A96AB" x="17.5" y="37" width="3" height="3"></rect>
                </g>
                <g id="Group-2-Copy-8" transform="translate(31.000000, 152.000000)">
                    <rect id="Rectangle-3" stroke="#E9E9E9" fill="#FFFFFF" x="0.5" y="0.5" width="25" height="46" rx="4"></rect>
                    <rect id="Rectangle-4" stroke="#D3D3D3" fill="#FFE0E0" x="2.5" y="3.5" width="21" height="38"></rect>
                    <rect id="Rectangle-15" fill="#83ACED" x="3" y="4" width="20" height="4"></rect>
                    <rect id="Rectangle-15-Copy" fill="#646E7E" x="3" y="36" width="20" height="5"></rect>
                    <rect id="Rectangle-5" fill="#8A96AB" x="5.5" y="37" width="3" height="3"></rect>
                    <rect id="Rectangle-5-Copy" fill="#8A96AB" x="11.5" y="37" width="3" height="3"></rect>
                    <rect id="Rectangle-5-Copy-2" fill="#8A96AB" x="17.5" y="37" width="3" height="3"></rect>
                </g>
                <g id="Group-2-Copy-2" transform="translate(158.000000, 36.000000)">
                    <rect id="Rectangle-3" stroke="#E9E9E9" fill="#FFFFFF" x="0.5" y="0.5" width="25" height="46" rx="4"></rect>
                    <rect id="Rectangle-4" stroke="#D3D3D3" fill="#D0EAF9" x="2.5" y="3.5" width="21" height="38"></rect>
                    <rect id="Rectangle-15" fill="#83ACED" x="3" y="4" width="20" height="4"></rect>
                    <rect id="Rectangle-15-Copy" fill="#646E7E" x="3" y="36" width="20" height="5"></rect>
                    <rect id="Rectangle-5" fill="#8A96AB" x="5.5" y="37" width="3" height="3"></rect>
                    <rect id="Rectangle-5-Copy" fill="#8A96AB" x="11.5" y="37" width="3" height="3"></rect>
                    <rect id="Rectangle-5-Copy-2" fill="#8A96AB" x="17.5" y="37" width="3" height="3"></rect>
                </g>
                <g id="Group-2-Copy-9" transform="translate(63.000000, 152.000000)">
                    <rect id="Rectangle-3" stroke="#E9E9E9" fill="#FFFFFF" x="0.5" y="0.5" width="25" height="46" rx="4"></rect>
                    <rect id="Rectangle-4" stroke="#D3D3D3" fill="#FCCDCD" x="2.5" y="3.5" width="21" height="38"></rect>
                    <rect id="Rectangle-15" fill="#83ACED" x="3" y="4" width="20" height="4"></rect>
                    <rect id="Rectangle-15-Copy" fill="#646E7E" x="3" y="36" width="20" height="5"></rect>
                    <rect id="Rectangle-5" fill="#8A96AB" x="5.5" y="37" width="3" height="3"></rect>
                    <rect id="Rectangle-5-Copy" fill="#8A96AB" x="11.5" y="37" width="3" height="3"></rect>
                    <rect id="Rectangle-5-Copy-2" fill="#8A96AB" x="17.5" y="37" width="3" height="3"></rect>
                </g>
                <g id="Group-2-Copy-4" transform="translate(316.000000, 36.000000)">
                    <rect id="Rectangle-3" stroke="#E9E9E9" fill="#FFFFFF" x="0.5" y="0.5" width="25" height="46" rx="4"></rect>
                    <rect id="Rectangle-4" stroke="#D3D3D3" fill="#ADD8F2" x="2.5" y="3.5" width="21" height="38"></rect>
                    <rect id="Rectangle-15" fill="#83ACED" x="3" y="4" width="20" height="4"></rect>
                    <rect id="Rectangle-15-Copy" fill="#646E7E" x="3" y="36" width="20" height="5"></rect>
                    <rect id="Rectangle-5" fill="#8A96AB" x="5.5" y="37" width="3" height="3"></rect>
                    <rect id="Rectangle-5-Copy" fill="#8A96AB" x="11.5" y="37" width="3" height="3"></rect>
                    <rect id="Rectangle-5-Copy-2" fill="#8A96AB" x="17.5" y="37" width="3" height="3"></rect>
                </g>
                <g id="Group-2-Copy-3" transform="translate(190.000000, 36.000000)">
                    <rect id="Rectangle-3" stroke="#E9E9E9" fill="#FFFFFF" x="0.5" y="0.5" width="25" height="46" rx="4"></rect>
                    <rect id="Rectangle-4" stroke="#D3D3D3" fill="#B6E1FB" x="2.5" y="3.5" width="21" height="38"></rect>
                    <rect id="Rectangle-15" fill="#83ACED" x="3" y="4" width="20" height="4"></rect>
                    <rect id="Rectangle-15-Copy" fill="#646E7E" x="3" y="36" width="20" height="5"></rect>
                    <rect id="Rectangle-5" fill="#8A96AB" x="5.5" y="37" width="3" height="3"></rect>
                    <rect id="Rectangle-5-Copy" fill="#8A96AB" x="11.5" y="37" width="3" height="3"></rect>
                    <rect id="Rectangle-5-Copy-2" fill="#8A96AB" x="17.5" y="37" width="3" height="3"></rect>
                </g>
                <g id="Group-2-Copy-6" transform="translate(222.000000, 36.000000)">
                    <rect id="Rectangle-3" stroke="#E9E9E9" fill="#FFFFFF" x="0.5" y="0.5" width="25" height="46" rx="4"></rect>
                    <rect id="Rectangle-4" stroke="#D3D3D3" fill="#ADD8F2" x="2.5" y="3.5" width="21" height="38"></rect>
                    <rect id="Rectangle-15" fill="#83ACED" x="3" y="4" width="20" height="4"></rect>
                    <rect id="Rectangle-15-Copy" fill="#646E7E" x="3" y="36" width="20" height="5"></rect>
                    <rect id="Rectangle-5" fill="#8A96AB" x="5.5" y="37" width="3" height="3"></rect>
                    <rect id="Rectangle-5-Copy" fill="#8A96AB" x="11.5" y="37" width="3" height="3"></rect>
                    <rect id="Rectangle-5-Copy-2" fill="#8A96AB" x="17.5" y="37" width="3" height="3"></rect>
                </g>
                <g id="Group-2-Copy-7" transform="translate(349.000000, 169.000000)">
                    <rect id="Rectangle-3" stroke="#E9E9E9" fill="#FFFFFF" x="0.5" y="0.5" width="25" height="46" rx="4"></rect>
                    <rect id="Rectangle-4" stroke="#D3D3D3" fill="#F0D3F4" x="2.5" y="3.5" width="21" height="38"></rect>
                    <rect id="Rectangle-15" fill="#83ACED" x="3" y="4" width="20" height="4"></rect>
                    <rect id="Rectangle-15-Copy" fill="#646E7E" x="3" y="36" width="20" height="5"></rect>
                    <rect id="Rectangle-5" fill="#8A96AB" x="5.5" y="37" width="3" height="3"></rect>
                    <rect id="Rectangle-5-Copy" fill="#8A96AB" x="11.5" y="37" width="3" height="3"></rect>
                    <rect id="Rectangle-5-Copy-2" fill="#8A96AB" x="17.5" y="37" width="3" height="3"></rect>
                </g>
                <g id="Group-2-Copy-5" transform="translate(349.000000, 36.000000)">
                    <rect id="Rectangle-3" stroke="#E9E9E9" fill="#FFFFFF" x="0.5" y="0.5" width="25" height="46" rx="4"></rect>
                    <rect id="Rectangle-4" stroke="#D3D3D3" fill="#C0F1B8" x="2.5" y="3.5" width="21" height="38"></rect>
                    <rect id="Rectangle-15" fill="#83ACED" x="3" y="4" width="20" height="4"></rect>
                    <rect id="Rectangle-15-Copy" fill="#646E7E" x="3" y="36" width="20" height="5"></rect>
                    <rect id="Rectangle-5" fill="#8A96AB" x="5.5" y="37" width="3" height="3"></rect>
                    <rect id="Rectangle-5-Copy" fill="#8A96AB" x="11.5" y="37" width="3" height="3"></rect>
                    <rect id="Rectangle-5-Copy-2" fill="#8A96AB" x="17.5" y="37" width="3" height="3"></rect>
                </g>
                <path d="M82,107 L138.008928,107" id="Line" stroke="#EFB3B3" stroke-width="2" stroke-linecap="square"></path>
                <path d="M235,107 L329,107" id="Line-Copy" stroke="#E9BCEF" stroke-width="2" stroke-linecap="square"></path>
                <path d="M139.008928,93.9999969 L139.008928,107" id="Line" stroke="#EFB3B3" stroke-width="2" stroke-linecap="square"></path>
                <path d="M235.008928,94 L235.008928,107" id="Line" stroke="#E9BCEF" stroke-width="2" stroke-linecap="square"></path>
                <g id="Group-3" transform="translate(67.000000, 57.000000)">
                    <path d="M0,4 L43,4" id="Line" stroke="#9AADCA" stroke-width="2" stroke-linecap="square"></path>
                    <polygon id="Triangle" fill="#9AADCA" transform="translate(45.000000, 4.000000) rotate(90.000000) translate(-45.000000, -4.000000) " points="45 0 49 8 41 8"></polygon>
                </g>
                <g id="Group-3-Copy-2" transform="translate(260.000000, 57.000000)">
                    <path d="M0,4 L43,4" id="Line" stroke="#C0F1B8" stroke-width="2" stroke-linecap="square"></path>
                    <polygon id="Triangle" fill="#C0F1B8" transform="translate(45.000000, 4.000000) rotate(90.000000) translate(-45.000000, -4.000000) " points="45 0 49 8 41 8"></polygon>
                </g>
                <g id="Group-3-Copy" transform="translate(202.500000, 116.500000) rotate(90.000000) translate(-202.500000, -116.500000) translate(179.500000, 112.500000)">
                    <path d="M0.5,4 L40,4" id="Line" stroke="#EFE3BC" stroke-width="2" stroke-linecap="square"></path>
                    <polygon id="Triangle" fill="#EFE3BC" transform="translate(42.000000, 4.000000) rotate(90.000000) translate(-42.000000, -4.000000) " points="42 0 46 8 38 8"></polygon>
                </g>
                <g id="Group-3-Copy-4" transform="translate(82.000000, 123.000000) rotate(90.000000) translate(-82.000000, -123.000000) translate(66.000000, 119.000000)">
                    <path d="M0,4 L26.6037736,4" id="Line" stroke="#EFB3B3" stroke-width="2" stroke-linecap="square"></path>
                    <polygon id="Triangle" fill="#EFB3B3" transform="translate(27.735849, 4.000000) rotate(90.000000) translate(-27.735849, -4.000000) " points="27.7358491 0 31.7358491 8 23.7358491 8"></polygon>
                </g>
                <g id="Group-3-Copy-5" transform="translate(329.000000, 123.000000) rotate(90.000000) translate(-329.000000, -123.000000) translate(313.000000, 119.000000)">
                    <path d="M0,4 L26.6037736,4" id="Line" stroke="#E9BCEF" stroke-width="2" stroke-linecap="square"></path>
                    <polygon id="Triangle" fill="#E9BCEF" transform="translate(27.735849, 4.000000) rotate(90.000000) translate(-27.735849, -4.000000) " points="27.7358491 0 31.7358491 8 23.7358491 8"></polygon>
                </g>
                <rect id="Rectangle-6" fill="#DCDCDC" x="24" y="16" width="34" height="8"></rect>
                <rect id="Rectangle-6-Copy-3" fill="#EFB3B3" x="24" y="132" width="43" height="8"></rect>
                <rect id="Rectangle-6-Copy-4" fill="#EFE3BC" x="144" y="132" width="43" height="8"></rect>
                <rect id="Rectangle-6-Copy-5" fill="#E9BCEF" x="271" y="132" width="43" height="8"></rect>
                <rect id="Rectangle-6-Copy" fill="#B6E1FB" x="119" y="16" width="56" height="8"></rect>
                <rect id="Rectangle-6-Copy-2" fill="#C0F1B8" x="318" y="16" width="45" height="8"></rect>
            </g>
            <g id="Group-4" transform="translate(174.119683, 92.258341) rotate(4.000000) translate(-174.119683, -92.258341) translate(152.619683, 75.258341)">
                <g id="Rectangle-39">
                    <use fill="black" fill-opacity="1" filter="url(#filter-4)" xlink:href="#path-3"></use>
                    <use fill="#FFD357" fill-rule="evenodd" xlink:href="#path-3"></use>
                </g>
                <rect id="Rectangle-8" fill="#000000" x="7" y="7" width="31" height="4"></rect>
                <rect id="Rectangle-8-Copy" fill="#000000" x="7" y="16" width="26" height="4"></rect>
            </g>
            <g id="Group-4-Copy-2" filter="url(#filter-5)" transform="translate(86.119683, 95.258341) rotate(-11.000000) translate(-86.119683, -95.258341) translate(64.619683, 78.258341)">
                <rect id="Rectangle-39" fill="#79FF57" x="0" y="0" width="43" height="34"></rect>
                <rect id="Rectangle-8" fill="#000000" x="7" y="7" width="31" height="4"></rect>
                <rect id="Rectangle-8-Copy" fill="#000000" x="7" y="16" width="15" height="4"></rect>
            </g>
            <g id="Group-4-Copy" transform="translate(365.183281, 115.085120) rotate(-10.000000) translate(-365.183281, -115.085120) translate(343.683281, 98.085120)">
                <g id="Rectangle-39">
                    <use fill="black" fill-opacity="1" filter="url(#filter-7)" xlink:href="#path-6"></use>
                    <use fill="#FF57E8" fill-rule="evenodd" xlink:href="#path-6"></use>
                </g>
                <rect id="Rectangle-8" fill="#000000" x="7" y="7" width="31" height="4"></rect>
                <rect id="Rectangle-8" fill="#000000" x="6.70105124" y="15.0567133" width="31" height="4"></rect>
                <rect id="Rectangle-8-Copy" fill="#000000" x="6.40700086" y="22.9966469" width="26" height="4"></rect>
            </g>
        </g>
        <g id="Group-15" transform="translate(204.000000, 294.000000) rotate(-3.000000) translate(-204.000000, -294.000000) translate(106.000000, 155.000000)">
            <g id="Rectangle-2">
                <use fill="black" fill-opacity="1" filter="url(#filter-9)" xlink:href="#path-8"></use>
                <rect stroke="#D7D7D7" stroke-width="1" stroke-linejoin="square" fill="#FAFAFA" fill-rule="evenodd" x="0.5" y="0.5" width="195" height="277" rx="6"></rect>
            </g>
            <rect id="Rectangle-40" stroke="#E3E3E3" fill="#EFEFEF" x="18.5" y="62.5" width="157.456706" height="10.2608826"></rect>
            <rect id="Rectangle-3" fill="#D1EAFF" x="19" y="20" width="43.4348331" height="28.1522066"></rect>
            <rect id="Rectangle-3-Copy" fill="#E8E8E8" x="78" y="20" width="64.3479008" height="8.0434876"></rect>
            <rect id="Rectangle-3-Copy-19" fill="#E8E8E8" x="77" y="34" width="96.5218513" height="8.0434876"></rect>
            <rect id="Rectangle-3-Copy-2" fill="#E8E8E8" x="22" y="78" width="43.4348331" height="4.82609256"></rect>
            <rect id="Rectangle-3-Copy-22" fill="#E8E8E8" x="22" y="124" width="36.4300003" height="4.82609256"></rect>
            <rect id="Rectangle-3-Copy-20" fill="#E8E8E8" x="22" y="101" width="33.4300003" height="4.82609256"></rect>
            <rect id="Rectangle-3-Copy-23" fill="#E8E8E8" x="22" y="147" width="48" height="4.82609256"></rect>
            <rect id="Rectangle-3-Copy-26" fill="#E8E8E8" x="22" y="170" width="38" height="4.82609256"></rect>
            <path d="M80.2065231,62.3275441 L80.2065231,188.75956" id="Line-4" stroke="#E3E3E3" stroke-linecap="square"></path>
            <path d="M18.2065231,62.3275441 L18.2065231,188.75956" id="Line-4-Copy-5" stroke="#E3E3E3" stroke-linecap="square"></path>
            <path d="M105.206523,62.3275441 L105.206523,188.75956" id="Line-4-Copy" stroke="#E3E3E3" stroke-linecap="square"></path>
            <path d="M128.206523,62.3275441 L128.206523,188.75956" id="Line-4-Copy-2" stroke="#E3E3E3" stroke-linecap="square"></path>
            <path d="M152.206523,62.3275441 L152.206523,188.75956" id="Line-4-Copy-3" stroke="#E3E3E3" stroke-linecap="square"></path>
            <path d="M175.206523,62.3275441 L175.206523,188.75956" id="Line-4-Copy-4" stroke="#E3E3E3" stroke-linecap="square"></path>
            <rect id="Rectangle-3-Copy-4" fill="#E8E8E8" x="22" y="86" width="27.3478579" height="4.82609256"></rect>
            <rect id="Rectangle-3-Copy-24" fill="#E8E8E8" x="22" y="132" width="27.3478579" height="4.82609256"></rect>
            <rect id="Rectangle-3-Copy-21" fill="#E8E8E8" x="22" y="109" width="27.3478579" height="4.82609256"></rect>
            <rect id="Rectangle-3-Copy-25" fill="#E8E8E8" x="22" y="155" width="27.3478579" height="4.82609256"></rect>
            <rect id="Rectangle-3-Copy-27" fill="#E8E8E8" x="22" y="178" width="27.3478579" height="4.82609256"></rect>
            <path d="M18.400112,96.2065231 L175.250183,96.2065231" id="Line-5-Copy" stroke="#E3E3E3" stroke-linecap="square"></path>
            <path d="M18.400112,142.206523 L175.250183,142.206523" id="Line-5-Copy-3" stroke="#E3E3E3" stroke-linecap="square"></path>
            <path d="M18.400112,119.206523 L175.250183,119.206523" id="Line-5-Copy-2" stroke="#E3E3E3" stroke-linecap="square"></path>
            <path d="M18.400112,165.206523 L175.250183,165.206523" id="Line-5-Copy-4" stroke="#E3E3E3" stroke-linecap="square"></path>
            <path d="M18.400112,188.206523 L175.250183,188.206523" id="Line-5-Copy-5" stroke="#E3E3E3" stroke-linecap="square"></path>
            <polyline id="Path-6" stroke="#6FD476" stroke-width="3" points="86 84.217395 90.0217438 88.2391388 98.8695802 81"></polyline>
            <polyline id="Path-6-Copy" stroke="#6FD476" stroke-width="3" points="133 107.217395 137.021744 111.239139 145.86958 104"></polyline>
            <polyline id="Path-6-Copy-3" stroke="#6FD476" stroke-width="3" points="157 153.217395 161.021744 157.239139 169.86958 150"></polyline>
            <g id="Group-14" transform="translate(18.000000, 203.000000)">
                <g id="Group-13">
                    <rect id="Rectangle-3-Copy-16" fill="#E8E8E8" x="16.891324" y="16.891324" width="42.6304843" height="8.0434876"></rect>
                    <rect id="Rectangle-3-Copy-17" fill="#E8E8E8" x="16.891324" y="32.9782992" width="33.7826479" height="8.0434876"></rect>
                    <rect id="Rectangle-3-Copy-18" fill="#E8E8E8" x="16.891324" y="49.0652744" width="48.2609256" height="8.0434876"></rect>
                    <rect id="Rectangle-3-Copy-9" fill="#DDDDDD" x="0" y="0" width="33.7826479" height="8.0434876"></rect>
                    <polyline id="Path-6-Copy-4" stroke="#6FD476" stroke-width="3" points="1.60869752 20.2874632 3.87092841 22.5217653 8.84783637 18.5000215"></polyline>
                    <polyline id="Path-6-Copy-5" stroke="#6FD476" stroke-width="3" points="1.60869752 36.3744384 3.87092841 38.6087405 8.84783637 34.5869967"></polyline>
                    <polyline id="Path-6-Copy-6" stroke="#6FD476" stroke-width="3" points="1.60869752 52.4614136 3.87092841 54.6957157 8.84783637 50.6739719"></polyline>
                </g>
                <g id="Group-13-Copy" transform="translate(86.065317, 0.000000)">
                    <rect id="Rectangle-3-Copy-16" fill="#E8E8E8" x="16.891324" y="16.891324" width="33.7826479" height="8.0434876"></rect>
                    <rect id="Rectangle-3-Copy-17" fill="#E8E8E8" x="16.891324" y="32.9782992" width="42.6304843" height="8.0434876"></rect>
                    <rect id="Rectangle-3-Copy-9" fill="#DDDDDD" x="0" y="0" width="33.7826479" height="8.0434876"></rect>
                    <path d="M5.63044132,20.4408653 L7.76536954,18.5000215 L8.0434876,18.8059514 L5.93776179,20.7202476 L8.0434876,22.6345438 L7.76536954,22.9404736 L5.63044132,20.9996298 L3.49551311,22.9404736 L3.21739504,22.6345438 L5.32312086,20.7202476 L3.21739504,18.8059514 L3.49551311,18.5000215 L5.63044132,20.4408653 Z" id="Combined-Shape-Copy-4" stroke="#FF7171" stroke-width="2"></path>
                    <path d="M5.63044132,35.7234918 L7.76536954,33.7826479 L8.0434876,34.0885778 L5.93776179,36.002874 L8.0434876,37.9171702 L7.76536954,38.2231001 L5.63044132,36.2822562 L3.49551311,38.2231001 L3.21739504,37.9171702 L5.32312086,36.002874 L3.21739504,34.0885778 L3.49551311,33.7826479 L5.63044132,35.7234918 Z" id="Combined-Shape-Copy-4" stroke="#FF7171" stroke-width="2"></path>
                </g>
            </g>
            <path d="M116.021744,130.23474 L119.579957,127 L120.043488,127.509883 L116.533945,130.700377 L120.043488,133.89087 L119.579957,134.400754 L116.021744,131.166014 L112.46353,134.400754 L112,133.89087 L115.509543,130.700377 L112,127.509883 L112.46353,127 L116.021744,130.23474 Z" id="Combined-Shape-Copy-2" stroke="#FF7171" stroke-width="2"></path>
            <path d="M140.021744,177.23474 L143.579957,174 L144.043488,174.509883 L140.533945,177.700377 L144.043488,180.89087 L143.579957,181.400754 L140.021744,178.166014 L136.46353,181.400754 L136,180.89087 L139.509543,177.700377 L136,174.509883 L136.46353,174 L140.021744,177.23474 Z" id="Combined-Shape-Copy-5" stroke="#FF7171" stroke-width="2"></path>
        </g>
        <g id="Group-9" filter="url(#filter-10)" transform="translate(345.912383, 303.144373) rotate(13.000000) translate(-345.912383, -303.144373) translate(255.912383, 182.144373)">
            <path d="M10.6391403,0 C4.76211073,0 0,4.75891408 0,10.6280753 L0,231.371925 C0,237.241086 4.76211073,242 10.6391403,242 L169.356867,242 C175.234895,242 180,237.241086 180,231.371925 L180,10.6280753 C180,4.75891408 175.234895,0 169.356867,0 L10.6391403,0 Z" id="Fill-344" fill="#0F1219"></path>
            <path d="M96,229 C96,232.313494 93.3145203,235 90,235 C86.6865059,235 84,232.313494 84,229 C84,225.68548 86.6865059,223 90,223 C93.3145203,223 96,225.68548 96,229" id="Fill-345" fill="#424048"></path>
            <path d="M14.5,11.5 L165.5,11.5 L165.5,216.5 L14.5,216.5 L14.5,11.5 Z" id="Path" stroke="#979797" fill="#4D6B85"></path>
            <path d="M14.5,11.5 L165.5,11.5 L165.5,216.5 L14.5,216.5 L14.5,11.5 Z" id="Path" stroke="#979797" fill="#4D6B85"></path>
            <rect id="Rectangle-30" stroke="#B6B6B6" fill="#F4FBFF" x="23.5" y="177.5" width="20" height="7"></rect>
            <rect id="Rectangle-33" fill="#CCCCCC" x="23" y="167" width="48" height="4"></rect>
            <rect id="Rectangle-30-Copy-5" stroke="#B6B6B6" fill="#FFFFFF" x="23.5" y="184.5" width="20" height="11"></rect>
            <rect id="Rectangle-30-Copy-10" stroke="#B6B6B6" fill="#F5F5F5" x="23.5" y="195.5" width="20" height="11"></rect>
            <rect id="Rectangle-30-Copy-4" stroke="#B6B6B6" fill="#F4FBFF" x="103.5" y="177.5" width="20" height="7"></rect>
            <rect id="Rectangle-30-Copy-6" stroke="#B6B6B6" fill="#FFFFFF" x="103.5" y="184.5" width="20" height="11"></rect>
            <rect id="Rectangle-30-Copy-11" stroke="#B6B6B6" fill="#F5F5F5" x="103.5" y="195.5" width="20" height="11"></rect>
            <rect id="Rectangle-30-Copy-2" stroke="#B6B6B6" fill="#F4FBFF" x="63.5" y="177.5" width="20" height="7"></rect>
            <rect id="Rectangle-30-Copy-7" stroke="#B6B6B6" fill="#FFFFFF" x="63.5" y="184.5" width="20" height="11"></rect>
            <rect id="Rectangle-30-Copy-12" stroke="#B6B6B6" fill="#F5F5F5" x="63.5" y="195.5" width="20" height="11"></rect>
            <rect id="Rectangle-30-Copy" stroke="#B6B6B6" fill="#F4FBFF" x="43.5" y="177.5" width="20" height="7"></rect>
            <rect id="Rectangle-30-Copy-8" stroke="#B6B6B6" fill="#FFFFFF" x="43.5" y="184.5" width="20" height="11"></rect>
            <rect id="Rectangle-30-Copy-13" stroke="#B6B6B6" fill="#F5F5F5" x="43.5" y="195.5" width="20" height="11"></rect>
            <rect id="Rectangle-30-Copy-3" stroke="#B6B6B6" fill="#F4FBFF" x="83.5" y="177.5" width="20" height="7"></rect>
            <rect id="Rectangle-30-Copy-9" stroke="#B6B6B6" fill="#FFFFFF" x="83.5" y="184.5" width="20" height="11"></rect>
            <rect id="Rectangle-30-Copy-14" stroke="#B6B6B6" fill="#F5F5F5" x="83.5" y="195.5" width="20" height="11"></rect>
            <rect id="Rectangle-30-Copy-5" stroke="#B6B6B6" fill="#FFFFFF" x="23.5" y="184.5" width="20" height="11"></rect>
            <rect id="Rectangle-30-Copy-15" stroke="#B6B6B6" fill="#F5F5F5" x="23.5" y="195.5" width="20" height="11"></rect>
            <rect id="Rectangle-30-Copy-6" stroke="#B6B6B6" fill="#FFFFFF" x="103.5" y="184.5" width="20" height="11"></rect>
            <rect id="Rectangle-30-Copy-16" stroke="#B6B6B6" fill="#F5F5F5" x="103.5" y="195.5" width="20" height="11"></rect>
            <rect id="Rectangle-30-Copy-7" stroke="#B6B6B6" fill="#FFFFFF" x="63.5" y="184.5" width="20" height="11"></rect>
            <rect id="Rectangle-30-Copy-17" stroke="#B6B6B6" fill="#F5F5F5" x="63.5" y="195.5" width="20" height="11"></rect>
            <rect id="Rectangle-30-Copy-8" stroke="#B6B6B6" fill="#FFFFFF" x="43.5" y="184.5" width="20" height="11"></rect>
            <rect id="Rectangle-30-Copy-18" stroke="#B6B6B6" fill="#F5F5F5" x="43.5" y="195.5" width="20" height="11"></rect>
            <rect id="Rectangle-30-Copy-9" stroke="#B6B6B6" fill="#FFFFFF" x="83.5" y="184.5" width="20" height="11"></rect>
            <rect id="Rectangle-30-Copy-19" stroke="#B6B6B6" fill="#F5F5F5" x="83.5" y="195.5" width="20" height="11"></rect>
            <rect id="Rectangle-23" fill="#E8EBED" x="15" y="12" width="150" height="14"></rect>
            <rect id="Rectangle-23" fill="#FFFFFF" x="15" y="26" width="150" height="18"></rect>
            <rect id="Rectangle-24" fill="#B7B5B7" x="15" y="44" width="150" height="1"></rect>
            <rect id="Rectangle-26" fill="#BABDBF" x="22" y="32" width="6" height="6"></rect>
            <rect id="Rectangle-26-Copy" fill="#BABDBF" x="34" y="32" width="6" height="6"></rect>
            <rect id="Rectangle-26-Copy-2" fill="#5F6369" x="46" y="32" width="6" height="6"></rect>
            <rect id="Rectangle-26-Copy-3" fill="#5F6369" x="58" y="32" width="6" height="6"></rect>
            <rect id="Rectangle-25" fill="#FFFFFF" x="35" y="15" width="46" height="16" rx="4"></rect>
            <rect id="Rectangle-28" fill="#E5E5E5" x="48" y="18" width="29" height="6"></rect>
            <rect id="Rectangle-28" fill="#A7ADD5" x="39" y="18" width="6" height="6"></rect>
            <rect id="Rectangle-27" fill="#D9DBDC" x="70" y="31" width="88" height="8" rx="4"></rect>
            <rect id="Rectangle-29" stroke="#E2E2E2" fill="#FFFFFF" x="22.5" y="74.5" width="135" height="74"></rect>
            <path d="M22,92 L158,92" id="Line-2" stroke="#E2E2E2"></path>
            <path d="M22,112 L158,112" id="Line-2-Copy" stroke="#E2E2E2"></path>
            <path d="M22,131 L158,131" id="Line-2-Copy-2" stroke="#E2E2E2"></path>
            <polyline id="Path-3" stroke="#7082E8" points="23 84 42.8333333 89 62.6666667 123 82.5 137 102.333333 123 122.166667 130 142 107"></polyline>
            <circle id="Oval-5" stroke="#7082E8" fill="#FFFFFF" cx="42.5" cy="89.5" r="1.5"></circle>
            <circle id="Oval-5" stroke="#7082E8" fill="#FFFFFF" cx="62.5" cy="122.5" r="1.5"></circle>
            <circle id="Oval-5" stroke="#7082E8" fill="#FFFFFF" cx="82.5" cy="137.5" r="1.5"></circle>
            <circle id="Oval-5" stroke="#7082E8" fill="#FFFFFF" cx="102.5" cy="122.5" r="1.5"></circle>
            <circle id="Oval-5" stroke="#7082E8" fill="#FFFFFF" cx="121.5" cy="130.5" r="1.5"></circle>
            <circle id="Oval-5" stroke="#7082E8" fill="#FFFFFF" cx="142.5" cy="107.5" r="1.5"></circle>
            <polyline id="Path-4" stroke="#3CB418" points="23 92 42.8333333 103 62.6666667 127 82.5 134 102.333333 129 121 119 142 119"></polyline>
            <circle id="Oval-5" stroke="#3CB418" fill="#FFFFFF" cx="42.5" cy="102.5" r="1.5"></circle>
            <circle id="Oval-5" stroke="#3CB418" fill="#FFFFFF" cx="62.5" cy="126.5" r="1.5"></circle>
            <circle id="Oval-5" stroke="#3CB418" fill="#FFFFFF" cx="82.5" cy="133.5" r="1.5"></circle>
            <circle id="Oval-5" stroke="#3CB418" fill="#FFFFFF" cx="102.5" cy="128.5" r="1.5"></circle>
            <circle id="Oval-5" stroke="#3CB418" fill="#FFFFFF" cx="121.5" cy="119.5" r="1.5"></circle>
            <circle id="Oval-5" stroke="#3CB418" fill="#FFFFFF" cx="141.5" cy="119.5" r="1.5"></circle>
            <rect id="Rectangle-31" stroke="#F4F4F4" fill="#FFFFFF" x="23.5" y="48.5" width="60" height="15" rx="7.5"></rect>
            <rect id="Rectangle-32" fill="#94C0CC" x="31" y="54" width="30" height="5"></rect>
            <rect id="Rectangle-32" fill="#94C0CC" x="23" y="155" width="61" height="6"></rect>
            <polyline id="Path-5" stroke="#C8C8C8" points="71 55 74 58 77 55"></polyline>
            <polygon id="Path" fill="#FFFFFF" opacity="0.254136029" points="68.0876166 216 165 216 165 12 121.112408 12"></polygon>
        </g>
        <g id="Group" filter="url(#filter-11)" transform="translate(92.021648, 303.118249) rotate(-10.000000) translate(-92.021648, -303.118249) translate(36.521648, 203.118249)">
            <path d="M106.161824,0 L4.78256513,0 C2.16883768,0 0,2.10118883 0,4.75532209 L0,195.244678 C0,197.843517 2.11322645,200 4.78256513,200 L106.217435,200 C108.831162,200 111,197.898811 111,195.244678 L111,4.70002765 C110.944389,2.10118883 108.775551,0 106.161824,0 Z" id="Shape" fill="#2D2D2D" fill-rule="nonzero"></path>
            <rect id="Rectangle-path" fill="#FFFFFF" fill-rule="nonzero" x="4" y="17" width="102" height="163"></rect>
            <rect id="Rectangle-38" stroke="#EBEBEB" x="13.5" y="109.5" width="81" height="68"></rect>
            <rect id="Rectangle-37-Copy" fill="#D8D8D8" x="36" y="132" width="38" height="4"></rect>
            <rect id="Rectangle-37-Copy-2" fill="#D8D8D8" x="36" y="139" width="38" height="4"></rect>
            <rect id="Rectangle-37-Copy-4" fill="#D8D8D8" x="36" y="146" width="38" height="4"></rect>
            <rect id="Rectangle-37-Copy-3" fill="#D8D8D8" x="36" y="153" width="23" height="4"></rect>
            <rect id="Rectangle-36" fill="#B0B0B0" x="27" y="74" width="36" height="4"></rect>
            <rect id="Rectangle-36-Copy" fill="#E1E1E1" x="27" y="81" width="47" height="4"></rect>
            <rect id="Rectangle-34" fill="#CDCDCD" x="10" y="41" width="10" height="6"></rect>
            <rect id="Rectangle-34-Copy-3" fill="#CDCDCD" x="10" y="57" width="8" height="6"></rect>
            <rect id="Rectangle-34-Copy" fill="#666666" x="27" y="41" width="40" height="6"></rect>
            <rect id="Rectangle-34-Copy-4" fill="#666666" x="27" y="57" width="30" height="6"></rect>
            <rect id="Rectangle-34-Copy-2" fill="#666666" x="94" y="41" width="6" height="6"></rect>
            <rect id="Rectangle-34-Copy-5" fill="#666666" x="94" y="57" width="6" height="6"></rect>
            <path d="M5,52 L106,52" id="Line-3" stroke="#F2F2F2"></path>
            <path d="M5,68 L106,68" id="Line-3-Copy-2" stroke="#F2F2F2"></path>
            <rect id="Rectangle-21" fill="#FDADAD" x="40" y="164" width="30" height="8"></rect>
            <rect id="Rectangle-37" fill="#A5A5A5" x="29" y="115" width="52" height="10"></rect>
            <rect id="Rectangle-35" fill="#F26A6A" x="13" y="95" width="82" height="14"></rect>
            <rect id="Rectangle" fill="#E95050" x="4" y="16" width="102" height="20"></rect>
            <rect id="Rectangle-10-Copy-2" fill="#ECECEC" x="10" y="22" width="8" height="8"></rect>
            <rect id="Rectangle-10-Copy-6" fill="#ECECEC" x="10" y="74" width="11" height="11"></rect>
            <rect id="Rectangle-10-Copy-5" fill="#ECECEC" x="23" y="22" width="29" height="8"></rect>
            <rect id="Rectangle-10-Copy-3" fill="#ECECEC" x="84" y="22" width="8" height="8"></rect>
            <rect id="Rectangle-10-Copy-4" fill="#ECECEC" x="97" y="22" width="4" height="8"></rect>
            <path d="M64.2992519,11 L45.7007481,11 C44.7680798,11 44,10.3225806 44,9.5 C44,8.67741935 44.7680798,8 45.7007481,8 L64.2992519,8 C65.2319202,8 66,8.67741935 66,9.5 C65.9451372,10.3225806 65.2319202,11 64.2992519,11 Z" id="Shape" fill="#39484F" fill-rule="nonzero"></path>
            <circle id="Oval" fill="#39484F" fill-rule="nonzero" cx="79" cy="9" r="4"></circle>
            <path d="M79,11 C77.8888889,11 77,10.1111111 77,9 C77,7.88888889 77.8888889,7 79,7 C80.1111111,7 81,7.88888889 81,9 C81,10.1111111 80.1111111,11 79,11 Z" id="Shape" fill="#55707A" fill-rule="nonzero"></path>
            <path d="M79,11 C78.5818856,11 78.1952387,10.8741298 77.8755834,10.6579135 C77.8755834,10.6579135 80.5181728,7.69274822 80.5181728,7.69274822 C80.8189662,8.04239097 81,8.49856626 81,9 C81,10.1111111 80.1111111,11 79,11 Z" id="Shape" fill="#7D949C" fill-rule="nonzero"></path>
            <path d="M61.9656751,185 L50.0343249,185 C47.2654462,185 45,186.8 45,189 C45,191.2 47.2654462,193 50.0343249,193 L61.9656751,193 C64.7345538,193 67,191.2 67,189 C67,186.76 64.7345538,185 61.9656751,185 Z" id="Shape" fill="#434343" fill-rule="nonzero"></path>
            <path d="M49.2712934,191 C48.022082,191 47,190.1 47,189 C47,187.9 48.022082,187 49.2712934,187 L62.7287066,187 C63.977918,187 65,187.9 65,189 C65,190.1 63.977918,191 62.7287066,191 L49.2712934,191 Z" id="Shape" fill="#2D2D2D" fill-rule="nonzero"></path>
            <g opacity="0.35" transform="translate(43.000000, 16.000000)" fill="#F0F0F1" fill-rule="nonzero" id="Shape">
                <polygon points="63 0 46.8374835 0 0.225448044 163.580886 63 163.580886"></polygon>
            </g>
        </g>
    </g>
</svg>
