<?xml version="1.0" encoding="UTF-8" standalone="no"?>
<svg width="503px" height="465px" viewBox="0 0 503 465" version="1.1" xmlns="http://www.w3.org/2000/svg" xmlns:xlink="http://www.w3.org/1999/xlink">
    <!-- Generator: Sketch 50.2 (55047) - http://www.bohemiancoding.com/sketch -->
    <title>create</title>
    <desc>Created with Sketch.</desc>
    <defs>
        <rect id="path-1" x="0" y="0" width="405" height="236" rx="6"></rect>
        <filter x="-3.2%" y="-4.7%" width="106.4%" height="111.0%" filterUnits="objectBoundingBox" id="filter-2">
            <feOffset dx="0" dy="2" in="SourceAlpha" result="shadowOffsetOuter1"></feOffset>
            <feGaussianBlur stdDeviation="4" in="shadowOffsetOuter1" result="shadowBlurOuter1"></feGaussianBlur>
            <feComposite in="shadowBlurOuter1" in2="SourceAlpha" operator="out" result="shadowBlurOuter1"></feComposite>
            <feColorMatrix values="0 0 0 0 0   0 0 0 0 0   0 0 0 0 0  0 0 0 0.3 0" type="matrix" in="shadowBlurOuter1"></feColorMatrix>
        </filter>
        <filter x="-1.7%" y="-1.8%" width="103.3%" height="105.1%" filterUnits="objectBoundingBox" id="filter-3">
            <feOffset dx="0" dy="2" in="SourceAlpha" result="shadowOffsetOuter1"></feOffset>
            <feGaussianBlur stdDeviation="2" in="shadowOffsetOuter1" result="shadowBlurOuter1"></feGaussianBlur>
            <feColorMatrix values="0 0 0 0 0   0 0 0 0 0   0 0 0 0 0  0 0 0 0.3 0" type="matrix" in="shadowBlurOuter1" result="shadowMatrixOuter1"></feColorMatrix>
            <feMerge>
                <feMergeNode in="shadowMatrixOuter1"></feMergeNode>
                <feMergeNode in="SourceGraphic"></feMergeNode>
            </feMerge>
        </filter>
        <rect id="path-4" x="0" y="11" width="190" height="152"></rect>
        <filter x="-1.8%" y="-1.6%" width="103.7%" height="104.6%" filterUnits="objectBoundingBox" id="filter-5">
            <feOffset dx="0" dy="1" in="SourceAlpha" result="shadowOffsetOuter1"></feOffset>
            <feGaussianBlur stdDeviation="1" in="shadowOffsetOuter1" result="shadowBlurOuter1"></feGaussianBlur>
            <feColorMatrix values="0 0 0 0 0   0 0 0 0 0   0 0 0 0 0  0 0 0 0.3 0" type="matrix" in="shadowBlurOuter1"></feColorMatrix>
        </filter>
        <linearGradient x1="0%" y1="54.8716605%" x2="100%" y2="54.8716605%" id="linearGradient-6">
            <stop stop-color="#F28787" offset="0%"></stop>
            <stop stop-color="#FFD26E" offset="100%"></stop>
        </linearGradient>
        <linearGradient x1="0%" y1="50%" x2="100%" y2="50%" id="linearGradient-7">
            <stop stop-color="#FF8A8A" offset="0%"></stop>
            <stop stop-color="#FF5252" offset="100%"></stop>
        </linearGradient>
        <filter x="-6.3%" y="-2.5%" width="112.6%" height="107.0%" filterUnits="objectBoundingBox" id="filter-8">
            <feOffset dx="0" dy="2" in="SourceAlpha" result="shadowOffsetOuter1"></feOffset>
            <feGaussianBlur stdDeviation="2" in="shadowOffsetOuter1" result="shadowBlurOuter1"></feGaussianBlur>
            <feColorMatrix values="0 0 0 0 0   0 0 0 0 0   0 0 0 0 0  0 0 0 0.3 0" type="matrix" in="shadowBlurOuter1" result="shadowMatrixOuter1"></feColorMatrix>
            <feMerge>
                <feMergeNode in="shadowMatrixOuter1"></feMergeNode>
                <feMergeNode in="SourceGraphic"></feMergeNode>
            </feMerge>
        </filter>
    </defs>
    <g id="create" stroke="none" stroke-width="1" fill="none" fill-rule="evenodd">
        <g id="Group-5" transform="translate(20.000000, 20.000000)">
            <g id="wireframe" transform="translate(42.000000, 0.000000)">
                <g id="Rectangle-2">
                    <use fill="black" fill-opacity="1" filter="url(#filter-2)" xlink:href="#path-1"></use>
                    <rect stroke="#D7D7D7" stroke-width="1" stroke-linejoin="square" fill="#FAFAFA" fill-rule="evenodd" x="0.5" y="0.5" width="404" height="235" rx="6"></rect>
                </g>
                <g id="Group-2" transform="translate(30.000000, 36.000000)">
                    <rect id="Rectangle-3" stroke="#E9E9E9" fill="#FFFFFF" x="0.5" y="0.5" width="25" height="46" rx="4"></rect>
                    <rect id="Rectangle-4" stroke="#D3D3D3" fill="#E0F3FF" x="2.5" y="3.5" width="21" height="38"></rect>
                    <rect id="Rectangle-15" fill="#83ACED" x="3" y="4" width="20" height="4"></rect>
                    <rect id="Rectangle-15-Copy" fill="#646E7E" x="3" y="36" width="20" height="5"></rect>
                    <rect id="Rectangle-5" fill="#8A96AB" x="5.5" y="37" width="3" height="3"></rect>
                    <rect id="Rectangle-5-Copy" fill="#8A96AB" x="11.5" y="37" width="3" height="3"></rect>
                    <rect id="Rectangle-5-Copy-2" fill="#8A96AB" x="17.5" y="37" width="3" height="3"></rect>
                </g>
                <rect id="Rectangle-7" fill="#E7F6FF" x="119" y="30" width="136" height="60"></rect>
                <g id="Group-2-Copy" transform="translate(126.000000, 36.000000)">
                    <rect id="Rectangle-3" stroke="#E9E9E9" fill="#FFFFFF" x="0.5" y="0.5" width="25" height="46" rx="4"></rect>
                    <rect id="Rectangle-4" stroke="#D3D3D3" fill="#E0F3FF" x="2.5" y="3.5" width="21" height="38"></rect>
                    <rect id="Rectangle-15" fill="#83ACED" x="3" y="4" width="20" height="4"></rect>
                    <rect id="Rectangle-15-Copy" fill="#646E7E" x="3" y="36" width="20" height="5"></rect>
                    <rect id="Rectangle-5" fill="#8A96AB" x="5.5" y="37" width="3" height="3"></rect>
                    <rect id="Rectangle-5-Copy" fill="#8A96AB" x="11.5" y="37" width="3" height="3"></rect>
                    <rect id="Rectangle-5-Copy-2" fill="#8A96AB" x="17.5" y="37" width="3" height="3"></rect>
                </g>
                <g id="Group-2-Copy-2" transform="translate(158.000000, 36.000000)">
                    <rect id="Rectangle-3" stroke="#E9E9E9" fill="#FFFFFF" x="0.5" y="0.5" width="25" height="46" rx="4"></rect>
                    <rect id="Rectangle-4" stroke="#D3D3D3" fill="#D0EAF9" x="2.5" y="3.5" width="21" height="38"></rect>
                    <rect id="Rectangle-15" fill="#83ACED" x="3" y="4" width="20" height="4"></rect>
                    <rect id="Rectangle-15-Copy" fill="#646E7E" x="3" y="36" width="20" height="5"></rect>
                    <rect id="Rectangle-5" fill="#8A96AB" x="5.5" y="37" width="3" height="3"></rect>
                    <rect id="Rectangle-5-Copy" fill="#8A96AB" x="11.5" y="37" width="3" height="3"></rect>
                    <rect id="Rectangle-5-Copy-2" fill="#8A96AB" x="17.5" y="37" width="3" height="3"></rect>
                </g>
                <g id="Group-2-Copy-4" transform="translate(316.000000, 36.000000)">
                    <rect id="Rectangle-3" stroke="#E9E9E9" fill="#FFFFFF" x="0.5" y="0.5" width="25" height="46" rx="4"></rect>
                    <rect id="Rectangle-4" stroke="#D3D3D3" fill="#ADD8F2" x="2.5" y="3.5" width="21" height="38"></rect>
                    <rect id="Rectangle-15" fill="#83ACED" x="3" y="4" width="20" height="4"></rect>
                    <rect id="Rectangle-15-Copy" fill="#646E7E" x="3" y="36" width="20" height="5"></rect>
                    <rect id="Rectangle-5" fill="#8A96AB" x="5.5" y="37" width="3" height="3"></rect>
                    <rect id="Rectangle-5-Copy" fill="#8A96AB" x="11.5" y="37" width="3" height="3"></rect>
                    <rect id="Rectangle-5-Copy-2" fill="#8A96AB" x="17.5" y="37" width="3" height="3"></rect>
                </g>
                <g id="Group-2-Copy-3" transform="translate(190.000000, 36.000000)">
                    <rect id="Rectangle-3" stroke="#E9E9E9" fill="#FFFFFF" x="0.5" y="0.5" width="25" height="46" rx="4"></rect>
                    <rect id="Rectangle-4" stroke="#D3D3D3" fill="#B6E1FB" x="2.5" y="3.5" width="21" height="38"></rect>
                    <rect id="Rectangle-15" fill="#83ACED" x="3" y="4" width="20" height="4"></rect>
                    <rect id="Rectangle-15-Copy" fill="#646E7E" x="3" y="36" width="20" height="5"></rect>
                    <rect id="Rectangle-5" fill="#8A96AB" x="5.5" y="37" width="3" height="3"></rect>
                    <rect id="Rectangle-5-Copy" fill="#8A96AB" x="11.5" y="37" width="3" height="3"></rect>
                    <rect id="Rectangle-5-Copy-2" fill="#8A96AB" x="17.5" y="37" width="3" height="3"></rect>
                </g>
                <g id="Group-2-Copy-6" transform="translate(222.000000, 36.000000)">
                    <rect id="Rectangle-3" stroke="#E9E9E9" fill="#FFFFFF" x="0.5" y="0.5" width="25" height="46" rx="4"></rect>
                    <rect id="Rectangle-4" stroke="#D3D3D3" fill="#ADD8F2" x="2.5" y="3.5" width="21" height="38"></rect>
                    <rect id="Rectangle-15" fill="#83ACED" x="3" y="4" width="20" height="4"></rect>
                    <rect id="Rectangle-15-Copy" fill="#646E7E" x="3" y="36" width="20" height="5"></rect>
                    <rect id="Rectangle-5" fill="#8A96AB" x="5.5" y="37" width="3" height="3"></rect>
                    <rect id="Rectangle-5-Copy" fill="#8A96AB" x="11.5" y="37" width="3" height="3"></rect>
                    <rect id="Rectangle-5-Copy-2" fill="#8A96AB" x="17.5" y="37" width="3" height="3"></rect>
                </g>
                <g id="Group-2-Copy-7" transform="translate(349.000000, 169.000000)">
                    <rect id="Rectangle-3" stroke="#E9E9E9" fill="#FFFFFF" x="0.5" y="0.5" width="25" height="46" rx="4"></rect>
                    <rect id="Rectangle-4" stroke="#D3D3D3" fill="#F0D3F4" x="2.5" y="3.5" width="21" height="38"></rect>
                    <rect id="Rectangle-15" fill="#83ACED" x="3" y="4" width="20" height="4"></rect>
                    <rect id="Rectangle-15-Copy" fill="#646E7E" x="3" y="36" width="20" height="5"></rect>
                    <rect id="Rectangle-5" fill="#8A96AB" x="5.5" y="37" width="3" height="3"></rect>
                    <rect id="Rectangle-5-Copy" fill="#8A96AB" x="11.5" y="37" width="3" height="3"></rect>
                    <rect id="Rectangle-5-Copy-2" fill="#8A96AB" x="17.5" y="37" width="3" height="3"></rect>
                </g>
                <g id="Group-2-Copy-5" transform="translate(349.000000, 36.000000)">
                    <rect id="Rectangle-3" stroke="#E9E9E9" fill="#FFFFFF" x="0.5" y="0.5" width="25" height="46" rx="4"></rect>
                    <rect id="Rectangle-4" stroke="#D3D3D3" fill="#C0F1B8" x="2.5" y="3.5" width="21" height="38"></rect>
                    <rect id="Rectangle-15" fill="#83ACED" x="3" y="4" width="20" height="4"></rect>
                    <rect id="Rectangle-15-Copy" fill="#646E7E" x="3" y="36" width="20" height="5"></rect>
                    <rect id="Rectangle-5" fill="#8A96AB" x="5.5" y="37" width="3" height="3"></rect>
                    <rect id="Rectangle-5-Copy" fill="#8A96AB" x="11.5" y="37" width="3" height="3"></rect>
                    <rect id="Rectangle-5-Copy-2" fill="#8A96AB" x="17.5" y="37" width="3" height="3"></rect>
                </g>
                <path d="M82,107 L138.008928,107" id="Line" stroke="#EFB3B3" stroke-width="2" stroke-linecap="square"></path>
                <path d="M235,107 L329,107" id="Line-Copy" stroke="#E9BCEF" stroke-width="2" stroke-linecap="square"></path>
                <path d="M139.008928,93.9999969 L139.008928,107" id="Line" stroke="#EFB3B3" stroke-width="2" stroke-linecap="square"></path>
                <path d="M235.008928,94 L235.008928,107" id="Line" stroke="#E9BCEF" stroke-width="2" stroke-linecap="square"></path>
                <g id="Group-3" transform="translate(67.000000, 57.000000)">
                    <path d="M0,4 L43,4" id="Line" stroke="#9AADCA" stroke-width="2" stroke-linecap="square"></path>
                    <polygon id="Triangle" fill="#9AADCA" transform="translate(45.000000, 4.000000) rotate(90.000000) translate(-45.000000, -4.000000) " points="45 0 49 8 41 8"></polygon>
                </g>
                <g id="Group-3-Copy-2" transform="translate(260.000000, 57.000000)">
                    <path d="M0,4 L43,4" id="Line" stroke="#C0F1B8" stroke-width="2" stroke-linecap="square"></path>
                    <polygon id="Triangle" fill="#C0F1B8" transform="translate(45.000000, 4.000000) rotate(90.000000) translate(-45.000000, -4.000000) " points="45 0 49 8 41 8"></polygon>
                </g>
                <g id="Group-3-Copy" transform="translate(202.500000, 116.500000) rotate(90.000000) translate(-202.500000, -116.500000) translate(179.500000, 112.500000)">
                    <path d="M0.5,4 L40,4" id="Line" stroke="#EFE3BC" stroke-width="2" stroke-linecap="square"></path>
                    <polygon id="Triangle" fill="#EFE3BC" transform="translate(42.000000, 4.000000) rotate(90.000000) translate(-42.000000, -4.000000) " points="42 0 46 8 38 8"></polygon>
                </g>
                <g id="Group-3-Copy-4" transform="translate(82.000000, 123.000000) rotate(90.000000) translate(-82.000000, -123.000000) translate(66.000000, 119.000000)">
                    <path d="M0,4 L26.6037736,4" id="Line" stroke="#EFB3B3" stroke-width="2" stroke-linecap="square"></path>
                    <polygon id="Triangle" fill="#EFB3B3" transform="translate(27.735849, 4.000000) rotate(90.000000) translate(-27.735849, -4.000000) " points="27.7358491 0 31.7358491 8 23.7358491 8"></polygon>
                </g>
                <g id="Group-3-Copy-5" transform="translate(329.000000, 123.000000) rotate(90.000000) translate(-329.000000, -123.000000) translate(313.000000, 119.000000)">
                    <path d="M0,4 L26.6037736,4" id="Line" stroke="#E9BCEF" stroke-width="2" stroke-linecap="square"></path>
                    <polygon id="Triangle" fill="#E9BCEF" transform="translate(27.735849, 4.000000) rotate(90.000000) translate(-27.735849, -4.000000) " points="27.7358491 0 31.7358491 8 23.7358491 8"></polygon>
                </g>
                <rect id="Rectangle-6" fill="#DCDCDC" x="24" y="16" width="34" height="8"></rect>
                <rect id="Rectangle-6-Copy-3" fill="#EFB3B3" x="24" y="132" width="43" height="8"></rect>
                <rect id="Rectangle-6-Copy-4" fill="#EFE3BC" x="144" y="132" width="43" height="8"></rect>
                <rect id="Rectangle-6-Copy-5" fill="#E9BCEF" x="271" y="132" width="43" height="8"></rect>
                <rect id="Rectangle-6-Copy" fill="#B6E1FB" x="119" y="16" width="56" height="8"></rect>
                <rect id="Rectangle-6-Copy-2" fill="#C0F1B8" x="318" y="16" width="45" height="8"></rect>
            </g>
            <g id="Group-11" filter="url(#filter-3)" transform="translate(0.000000, 148.000000)">
                <path d="M384.539529,0 L37.6989151,0 C28.4770925,0 21,7.47032999 21,16.6910255 L21,242.290934 C21,251.510502 28.4770925,258.981959 37.6989151,258.981959 L384.539529,258.981959 C393.760224,258.981959 401.237317,251.510502 401.237317,242.290934 L401.237317,16.6910255 C401.237317,7.47032999 393.760224,0 384.539529,0" id="Fill-60" fill="#0F1219"></path>
                <path d="M211.140514,257.434368 L0,257.434368 C0,267.992915 8.56473108,276.557646 19.1300409,276.557646 L403.407963,276.557646 C413.973273,276.557646 422.538004,267.992915 422.538004,257.434368 L211.140514,257.434368" id="Fill-61" fill="#EAEEED"></path>
                <path d="M194.162082,257.434368 L0,257.434368 C0,261.559505 1.3119288,265.376947 3.53454358,268.501231 L419.003461,268.501231 C421.226075,265.376947 422.538004,261.559505 422.538004,257.434368 L194.162082,257.434368" id="Fill-62" fill="#CECECD"></path>
                <path d="M211.344975,257.434368 L181.718377,257.434368 C182.14667,259.873383 184.283626,261.739838 186.840986,261.739838 L236.362917,261.739838 C238.920276,261.739838 241.057232,259.873383 241.484398,257.434368 L211.344975,257.434368" id="Fill-63" fill="#A3A39E"></path>
                <polygon id="Fill-64" fill="#F2F2F2" points="36 14 36 244 386 244 386 14 213.351349 14"></polygon>
                <g id="Group-4" transform="translate(118.000000, 57.000000)">
                    <g id="Rectangle-19">
                        <use fill="black" fill-opacity="1" filter="url(#filter-5)" xlink:href="#path-4"></use>
                        <use fill="#FFFFFF" fill-rule="evenodd" xlink:href="#path-4"></use>
                    </g>
                    <rect id="Rectangle-14" fill="#FFCFCF" x="75" y="117" width="68" height="11"></rect>
                    <rect id="Rectangle-14-Copy" fill="#CDCDCD" x="75" y="135" width="83" height="6"></rect>
                    <rect id="Rectangle-14-Copy-2" fill="#CDCDCD" x="75" y="145" width="58" height="6"></rect>
                    <rect id="Rectangle-14-Copy-3" fill="#CDCDCD" x="75" y="155" width="74" height="6"></rect>
                    <rect id="Rectangle-13" fill="#D8D8D8" x="16" y="117" width="47" height="46"></rect>
                    <rect id="Rectangle-12" fill="#FFBFBF" x="94" y="20" width="24" height="6"></rect>
                    <rect id="Rectangle-12-Copy-3" fill="#FFBFBF" x="31" y="18" width="20" height="4"></rect>
                    <rect id="Rectangle-12-Copy-4" fill="#FFBFBF" x="31" y="24" width="12" height="4"></rect>
                    <rect id="Rectangle-12-Copy" fill="#FFBFBF" x="125" y="20" width="24" height="6"></rect>
                    <rect id="Rectangle-12-Copy-2" fill="#FFBFBF" x="156" y="20" width="24" height="6"></rect>
                    <rect id="Rectangle-9" fill="url(#linearGradient-6)" x="0" y="35" width="190" height="70"></rect>
                    <rect id="Rectangle-9" fill="url(#linearGradient-6)" x="0" y="35" width="190" height="70"></rect>
                    <rect id="Rectangle-10" fill="#FF5252" x="16" y="83" width="29" height="11"></rect>
                    <rect id="Rectangle-10-Copy-2" fill="url(#linearGradient-7)" x="16" y="17" width="12" height="12"></rect>
                    <rect id="Rectangle-10-Copy" stroke="#FF5252" x="51.5" y="83.5" width="28" height="10"></rect>
                    <rect id="Rectangle-11" fill="#FFFCFC" x="16" y="47" width="68" height="13"></rect>
                    <rect id="Rectangle-11-Copy" fill="#FFC7C7" x="16" y="64" width="83" height="4"></rect>
                    <rect id="Rectangle-11-Copy" fill="#FFC7C7" x="16" y="72" width="67" height="4"></rect>
                    <rect id="Rectangle-8" fill="#D5D5D5" x="0" y="0" width="48" height="6"></rect>
                    <polygon id="Path-2" stroke="#FFFFFF" fill="#000000" points="152 173 149 161 160 167 157 169 160 173 158 175 155 171"></polygon>
                </g>
                <rect id="Rectangle-16" stroke="#A7A9A8" fill="#E5E5E5" x="36.5" y="14.5" width="349" height="30"></rect>
                <circle id="Oval-2" fill="#FF6158" cx="43.5" cy="20.5" r="3.5"></circle>
                <circle id="Oval-2" fill="#FFC12F" cx="54.5" cy="20.5" r="3.5"></circle>
                <circle id="Oval-2" fill="#28CA41" cx="65.5" cy="20.5" r="3.5"></circle>
                <rect id="Rectangle-17" fill="#B9B9B9" x="170" y="18" width="72" height="8"></rect>
                <rect id="Rectangle-18" stroke="#A7A9A8" fill="#ECECEC" x="36.5" y="44.5" width="59" height="199"></rect>
                <rect id="Rectangle-18-Copy" stroke="#A7A9A8" fill="#ECECEC" x="326.5" y="44.5" width="59" height="199"></rect>
                <rect id="Rectangle-18" stroke="#A7A9A8" fill="#F4F3F3" x="36.5" y="44.5" width="59" height="11"></rect>
                <rect id="Rectangle-18-Copy-2" stroke="#A7A9A8" fill="#F5F5F4" x="326.5" y="44.5" width="59" height="11"></rect>
                <rect id="Rectangle-18" stroke="#A7A9A8" fill="#F4F3F3" x="36.5" y="144.5" width="59" height="11"></rect>
                <polygon id="Fill-64" fill="#FFFFFF" opacity="0.3" points="272 14 213 244 386 244 386 14 213.351349 14"></polygon>
            </g>
            <g id="Group" filter="url(#filter-8)" transform="translate(352.000000, 225.000000)">
                <path d="M106.161824,0 L4.78256513,0 C2.16883768,0 0,2.10118883 0,4.75532209 L0,195.244678 C0,197.843517 2.11322645,200 4.78256513,200 L106.217435,200 C108.831162,200 111,197.898811 111,195.244678 L111,4.70002765 C110.944389,2.10118883 108.775551,0 106.161824,0 Z" id="Shape" fill="#2D2D2D" fill-rule="nonzero"></path>
                <rect id="Rectangle-path" fill="#EDEDED" fill-rule="nonzero" x="4" y="17" width="102" height="163"></rect>
                <rect id="Rectangle-21" fill="#FDADAD" x="14" y="114" width="36" height="42"></rect>
                <rect id="Rectangle-22" fill="#FFFFFF" x="19" y="119" width="24" height="6"></rect>
                <rect id="Rectangle-22" fill="#FFC8C8" x="19" y="129" width="16" height="3"></rect>
                <rect id="Rectangle-21-Copy" fill="#E9B9E1" x="58" y="114" width="38" height="42"></rect>
                <rect id="Rectangle-22" fill="#FFFFFF" x="63" y="119" width="24" height="6"></rect>
                <rect id="Rectangle-22" fill="#ECA5E0" x="63" y="129" width="16" height="3"></rect>
                <rect id="Rectangle-9" fill="url(#linearGradient-6)" x="4" y="36" width="102" height="68"></rect>
                <rect id="Rectangle" fill="#FF5E5E" x="4" y="16" width="102" height="20"></rect>
                <rect id="Rectangle-Copy" fill="#D2D2D2" x="4" y="159" width="102" height="21"></rect>
                <rect id="Rectangle-20" fill="#B6B2B2" x="19" y="165" width="16" height="10"></rect>
                <rect id="Rectangle-20-Copy" fill="#B6B2B2" x="47" y="165" width="16" height="10"></rect>
                <rect id="Rectangle-20-Copy" fill="#B6B2B2" x="75" y="165" width="16" height="10"></rect>
                <rect id="Rectangle-10-Copy-2" fill="#FCB8B8" x="14" y="21" width="12" height="10"></rect>
                <path d="M64.2992519,11 L45.7007481,11 C44.7680798,11 44,10.3225806 44,9.5 C44,8.67741935 44.7680798,8 45.7007481,8 L64.2992519,8 C65.2319202,8 66,8.67741935 66,9.5 C65.9451372,10.3225806 65.2319202,11 64.2992519,11 Z" id="Shape" fill="#39484F" fill-rule="nonzero"></path>
                <circle id="Oval" fill="#39484F" fill-rule="nonzero" cx="79" cy="9" r="4"></circle>
                <path d="M79,11 C77.8888889,11 77,10.1111111 77,9 C77,7.88888889 77.8888889,7 79,7 C80.1111111,7 81,7.88888889 81,9 C81,10.1111111 80.1111111,11 79,11 Z" id="Shape" fill="#55707A" fill-rule="nonzero"></path>
                <path d="M79,11 C78.5818856,11 78.1952387,10.8741298 77.8755834,10.6579135 C77.8755834,10.6579135 80.5181728,7.69274822 80.5181728,7.69274822 C80.8189662,8.04239097 81,8.49856626 81,9 C81,10.1111111 80.1111111,11 79,11 Z" id="Shape" fill="#7D949C" fill-rule="nonzero"></path>
                <path d="M61.9656751,185 L50.0343249,185 C47.2654462,185 45,186.8 45,189 C45,191.2 47.2654462,193 50.0343249,193 L61.9656751,193 C64.7345538,193 67,191.2 67,189 C67,186.76 64.7345538,185 61.9656751,185 Z" id="Shape" fill="#434343" fill-rule="nonzero"></path>
                <path d="M49.2712934,191 C48.022082,191 47,190.1 47,189 C47,187.9 48.022082,187 49.2712934,187 L62.7287066,187 C63.977918,187 65,187.9 65,189 C65,190.1 63.977918,191 62.7287066,191 L49.2712934,191 Z" id="Shape" fill="#2D2D2D" fill-rule="nonzero"></path>
                <g opacity="0.15" transform="translate(43.000000, 16.000000)" fill="#F0F0F1" fill-rule="nonzero" id="Shape">
                    <polygon points="63 0 46.8374835 0 0.225448044 163.580886 63 163.580886"></polygon>
                </g>
                <rect id="Rectangle-10" fill="#FF5252" x="14" y="84" width="29" height="11"></rect>
                <rect id="Rectangle-10-Copy" stroke="#FF5252" x="49.5" y="84.5" width="28" height="10"></rect>
                <rect id="Rectangle-11" fill="#FFFCFC" x="14" y="47" width="68" height="13"></rect>
                <rect id="Rectangle-11-Copy" fill="#FFC7C7" x="14" y="65" width="83" height="4"></rect>
                <rect id="Rectangle-11-Copy" fill="#FFC7C7" x="14" y="73" width="67" height="4"></rect>
                <circle id="Oval-4" stroke="#DBDBDB" stroke-width="2" fill="#E4E4E4" opacity="0.7" cx="83.5" cy="109.5" r="10.5"></circle>
            </g>
        </g>
    </g>
</svg>