<?xml version="1.0" encoding="UTF-8" standalone="no"?>
<svg width="521px" height="449px" viewBox="0 0 521 449" version="1.1" xmlns="http://www.w3.org/2000/svg" xmlns:xlink="http://www.w3.org/1999/xlink">
    <!-- Generator: Sketch 50.2 (55047) - http://www.bohemiancoding.com/sketch -->
    <title>Artboard</title>
    <desc>Created with Sketch.</desc>
    <defs>
        <rect id="path-1" x="0" y="0" width="297" height="210" rx="6"></rect>
        <filter x="-4.4%" y="-5.2%" width="108.8%" height="112.4%" filterUnits="objectBoundingBox" id="filter-2">
            <feOffset dx="0" dy="2" in="SourceAlpha" result="shadowOffsetOuter1"></feOffset>
            <feGaussianBlur stdDeviation="4" in="shadowOffsetOuter1" result="shadowBlurOuter1"></feGaussianBlur>
            <feComposite in="shadowBlurOuter1" in2="SourceAlpha" operator="out" result="shadowBlurOuter1"></feComposite>
            <feColorMatrix values="0 0 0 0 0   0 0 0 0 0   0 0 0 0 0  0 0 0 0.3 0" type="matrix" in="shadowBlurOuter1"></feColorMatrix>
        </filter>
        <rect id="path-3" x="0" y="0" width="297" height="210" rx="6"></rect>
        <filter x="-4.4%" y="-5.2%" width="108.8%" height="112.4%" filterUnits="objectBoundingBox" id="filter-4">
            <feOffset dx="0" dy="2" in="SourceAlpha" result="shadowOffsetOuter1"></feOffset>
            <feGaussianBlur stdDeviation="4" in="shadowOffsetOuter1" result="shadowBlurOuter1"></feGaussianBlur>
            <feComposite in="shadowBlurOuter1" in2="SourceAlpha" operator="out" result="shadowBlurOuter1"></feComposite>
            <feColorMatrix values="0 0 0 0 0   0 0 0 0 0   0 0 0 0 0  0 0 0 0.3 0" type="matrix" in="shadowBlurOuter1"></feColorMatrix>
        </filter>
        <rect id="path-5" x="0" y="0" width="244" height="345" rx="6"></rect>
        <filter x="-5.3%" y="-3.2%" width="110.7%" height="107.5%" filterUnits="objectBoundingBox" id="filter-6">
            <feOffset dx="0" dy="2" in="SourceAlpha" result="shadowOffsetOuter1"></feOffset>
            <feGaussianBlur stdDeviation="4" in="shadowOffsetOuter1" result="shadowBlurOuter1"></feGaussianBlur>
            <feComposite in="shadowBlurOuter1" in2="SourceAlpha" operator="out" result="shadowBlurOuter1"></feComposite>
            <feColorMatrix values="0 0 0 0 0   0 0 0 0 0   0 0 0 0 0  0 0 0 0.3 0" type="matrix" in="shadowBlurOuter1"></feColorMatrix>
        </filter>
        <circle id="path-7" cx="24.5" cy="24.5" r="24.5"></circle>
        <rect id="path-9" x="0" y="0" width="244" height="345" rx="6"></rect>
        <filter x="-5.3%" y="-3.2%" width="110.7%" height="107.5%" filterUnits="objectBoundingBox" id="filter-10">
            <feOffset dx="0" dy="2" in="SourceAlpha" result="shadowOffsetOuter1"></feOffset>
            <feGaussianBlur stdDeviation="4" in="shadowOffsetOuter1" result="shadowBlurOuter1"></feGaussianBlur>
            <feComposite in="shadowBlurOuter1" in2="SourceAlpha" operator="out" result="shadowBlurOuter1"></feComposite>
            <feColorMatrix values="0 0 0 0 0   0 0 0 0 0   0 0 0 0 0  0 0 0 0.3 0" type="matrix" in="shadowBlurOuter1"></feColorMatrix>
        </filter>
        <circle id="path-11" cx="24.5" cy="24.5" r="24.5"></circle>
        <filter x="-6.3%" y="-2.5%" width="112.6%" height="107.0%" filterUnits="objectBoundingBox" id="filter-13">
            <feOffset dx="0" dy="2" in="SourceAlpha" result="shadowOffsetOuter1"></feOffset>
            <feGaussianBlur stdDeviation="2" in="shadowOffsetOuter1" result="shadowBlurOuter1"></feGaussianBlur>
            <feColorMatrix values="0 0 0 0 0   0 0 0 0 0   0 0 0 0 0  0 0 0 0.5 0" type="matrix" in="shadowBlurOuter1" result="shadowMatrixOuter1"></feColorMatrix>
            <feMerge>
                <feMergeNode in="shadowMatrixOuter1"></feMergeNode>
                <feMergeNode in="SourceGraphic"></feMergeNode>
            </feMerge>
        </filter>
    </defs>
    <g id="Artboard" stroke="none" stroke-width="1" fill="none" fill-rule="evenodd">
        <g id="Group-7" transform="translate(175.056238, 171.770796) rotate(-10.000000) translate(-175.056238, -171.770796) translate(26.056238, 66.270796)">
            <g id="Group-6-Copy" transform="translate(0.586266, 0.543071)">
                <g id="Rectangle-2">
                    <use fill="black" fill-opacity="1" filter="url(#filter-2)" xlink:href="#path-1"></use>
                    <rect stroke="#D7D7D7" stroke-width="1" stroke-linejoin="square" fill="#FAFAFA" fill-rule="evenodd" x="0.5" y="0.5" width="296" height="209" rx="6"></rect>
                </g>
            </g>
            <rect id="Rectangle-10" fill="#ECECEC" x="17" y="17" width="110" height="46"></rect>
            <rect id="Rectangle-10-Copy" fill="#ECECEC" x="17" y="73" width="110" height="46"></rect>
            <rect id="Rectangle-13" fill="#CEDAF5" x="23" y="33" width="31" height="24"></rect>
            <rect id="Rectangle-13-Copy-3" fill="#E5CEF5" x="23" y="99" width="31" height="16"></rect>
            <rect id="Rectangle-13-Copy" fill="#C8C8C8" x="68" y="30" width="31" height="6"></rect>
            <rect id="Rectangle-13-Copy-4" fill="#C8C8C8" x="23" y="23" width="20" height="6"></rect>
            <rect id="Rectangle-13-Copy-5" fill="#C8C8C8" x="23" y="79" width="26" height="6"></rect>
            <rect id="Rectangle-13-Copy-5" fill="#C8C8C8" x="23" y="89" width="20" height="6"></rect>
            <rect id="Rectangle-13-Copy-2" fill="#C8C8C8" x="68" y="40" width="31" height="6"></rect>
            <rect id="Rectangle-13-Copy-6" fill="#C8C8C8" x="68" y="79" width="31" height="6"></rect>
            <rect id="Rectangle-13-Copy-7" fill="#C8C8C8" x="68" y="89" width="31" height="6"></rect>
            <rect id="Rectangle-13-Copy-8" fill="#C8C8C8" x="68" y="99" width="23" height="6"></rect>
            <rect id="Rectangle-14" fill="#D8D8D8" x="104" y="17" width="1" height="108"></rect>
            <rect id="Rectangle-14-Copy" fill="#D8D8D8" x="60" y="17" width="1" height="108"></rect>
        </g>
        <g id="Group-6" transform="translate(170.086266, 306.543071) rotate(5.000000) translate(-170.086266, -306.543071) translate(21.586266, 201.543071)">
            <g id="Rectangle-2">
                <use fill="black" fill-opacity="1" filter="url(#filter-4)" xlink:href="#path-3"></use>
                <rect stroke="#D7D7D7" stroke-width="1" stroke-linejoin="square" fill="#FAFAFA" fill-rule="evenodd" x="0.5" y="0.5" width="296" height="209" rx="6"></rect>
            </g>
            <path d="M32.5,105.5 L127.5,105.5" id="Line" stroke="#C5C5C5" stroke-width="3" stroke-linecap="square"></path>
            <rect id="Rectangle-8" fill="#FEFFBD" x="26" y="22" width="72" height="66"></rect>
            <rect id="Rectangle-8-Copy" fill="#DBFFCB" x="28" y="117" width="90" height="55"></rect>
            <polygon id="Triangle" fill="#C5C5C5" transform="translate(28.000000, 105.000000) rotate(-90.000000) translate(-28.000000, -105.000000) " points="28 101 32 109 24 109"></polygon>
            <rect id="Rectangle-7" fill="#E19D9D" x="34" y="31" width="30" height="30"></rect>
            <rect id="Rectangle-7-Copy" fill="#B5E19D" x="58" y="49" width="30" height="24"></rect>
            <rect id="Rectangle-7-Copy-2" fill="#9DE1E1" x="34" y="126" width="25" height="24"></rect>
            <rect id="Rectangle-7-Copy-3" fill="#E19DDA" x="81" y="138" width="30" height="24"></rect>
            <rect id="Rectangle-3-Copy-12" fill="#E8E8E8" x="24" y="186" width="200" height="10"></rect>
        </g>
        <g id="Group-4" transform="translate(262.570119, 201.476586) rotate(-5.000000) translate(-262.570119, -201.476586) translate(140.570119, 28.976586)">
            <g id="Rectangle-2">
                <use fill="black" fill-opacity="1" filter="url(#filter-6)" xlink:href="#path-5"></use>
                <rect stroke="#D7D7D7" stroke-width="1" stroke-linejoin="square" fill="#FAFAFA" fill-rule="evenodd" x="0.5" y="0.5" width="243" height="344" rx="6"></rect>
            </g>
            <g id="Group-3" transform="translate(27.000000, 27.000000)">
                <circle id="Oval" fill="#BBEDFE" cx="24.5" cy="24.5" r="24.5"></circle>
                <g id="Group-2"></g>
                <mask id="mask-8" fill="white">
                    <use xlink:href="#path-7"></use>
                </mask>
                <g id="Oval"></g>
                <g id="Group" mask="url(#mask-8)">
                    <g transform="translate(2.500000, 6.000000)">
                        <g id="Group" stroke-width="1" fill="none" fill-rule="evenodd" transform="translate(11.060392, 0.000000)">
                            <path d="M15.8364706,7.80511765 C14.5921765,8.55923529 13.2850392,7.95594118 11.9276275,7.23952941 C10.5702157,6.52311765 6.48541176,5.93239216 4.9897451,6.76192157 C3.49407843,7.59145098 4.03452941,9.9794902 3.205,10.9347059 C2.37547059,11.8899216 1.29456863,14.3408039 1.65905882,14.6298824 C2.01098039,14.9315294 1.7847451,16.7791176 1.40768627,17.0304902 C1.68419608,17.2692941 1.89786275,17.3949804 1.89786275,17.3949804 C1.89786275,17.3949804 1.53337255,20.2229216 3.80829412,22.1333529 C4.37388235,22.6109608 4.93947059,23.076 5.4924902,23.4907647 C7.13898039,24.7601961 8.68492157,25.6777059 9.91664706,25.6777059 C10.8592941,25.6777059 12.7068824,24.6219412 14.2779608,23.5033333 C15.4342745,22.6738039 16.4523333,21.8065686 16.8419608,21.3038235 C17.7594706,20.1223725 18.2999216,17.0179216 18.2999216,17.0179216 C18.2999216,17.0179216 18.2119412,12.82 17.206451,11.3243333 C16.2009608,9.84123529 15.8364706,7.80511765 15.8364706,7.80511765 Z" id="Shape" fill="#F6C49F" fill-rule="nonzero"></path>
                            <path d="M0.0754117647,14.5796078 C0.0754117647,15.6228039 0.728980392,16.4271961 1.25686275,16.9048039 C1.04319608,16.3140784 0.980352941,14.0894314 0.892372549,13.1090784 C0.465039216,13.3478824 0.0754117647,13.7752157 0.0754117647,14.5796078 Z" id="Shape" fill="#F6C49F" fill-rule="nonzero"></path>
                            <path d="M18.9283529,13.1970588 C18.6392745,15.3337255 18.2999216,17.0430588 18.2999216,17.0430588 C18.2999216,17.0430588 19.7578824,15.585098 19.669902,14.4036471 C19.6321961,13.8129216 19.2802745,13.4358627 18.9283529,13.1970588 Z" id="Shape" fill="#F6C49F" fill-rule="nonzero"></path>
                            <path d="M1.75686275,17.3641187 C1.75686275,17.3641187 1.75686275,17.3641187 1.75686275,17.3641187 C1.59019608,17.238851 1.42352941,17.0718275 1.25686275,16.9048039 C1.42352941,17.3223628 1.54852941,17.4893864 1.75686275,17.3641187 Z" id="Shape" fill="#625242" fill-rule="nonzero"></path>
                            <path d="M19.0414706,5.51762745 C18.0108431,3.00390196 14.4287843,-0.0754117647 9.87894118,0.0377058824 C5.32909804,0.150823529 2.7022549,2.89078431 1.68419608,4.72580392 C0.666137255,6.56082353 0.879803922,9.38876471 0.879803922,9.57729412 C0.879803922,9.7532549 0.716411765,11.9653333 0.854666667,12.8577059 C0.867235294,12.9331176 0.879803922,13.021098 0.892372549,13.1216471 C0.992921569,14.102 1.05576471,16.3266471 1.25686275,16.9173725 C1.30713725,16.9676471 1.35741176,17.0053529 1.40768627,17.0430588 C1.77217647,16.7916863 2.01098039,14.944098 1.65905882,14.642451 C1.30713725,14.3408039 2.37547059,11.9024902 3.205,10.9472745 C4.03452941,9.99205882 3.50664706,7.60401961 4.9897451,6.7744902 C6.47284314,5.94496078 10.5702157,6.53568627 11.9276275,7.25209804 C13.2850392,7.9685098 14.5796078,8.55923529 15.8364706,7.81768627 C15.8364706,7.81768627 16.2009608,9.85380392 17.206451,11.3620392 C18.2119412,12.8702745 18.2999216,17.0556275 18.2999216,17.0556275 C18.2999216,17.0556275 18.6392745,15.3462941 18.9283529,13.2096275 C19.3054118,10.4193922 19.6196275,6.93788235 19.0414706,5.51762745 Z" id="Shape" fill="#625242" fill-rule="nonzero"></path>
                        </g>
                        <path d="M20.9267647,25.64 C19.669902,25.64 18.1113922,24.6973529 16.4271961,23.4027843 C16.2638039,23.277098 16.0878431,23.1388431 15.924451,23.0131569 L15.924451,23.5284706 C15.924451,23.5284706 19.7327451,26.821451 21.2786863,26.3941176 C22.8246275,25.9667843 26.1678824,23.4781961 26.1678824,23.4781961 L26.1678824,22.8371961 C25.9165098,23.0257255 25.6525686,23.2268235 25.3886275,23.4153529 C23.7672745,24.559098 21.8819804,25.64 20.9267647,25.64 Z" id="Shape" fill="#AE8D6E" fill-rule="nonzero"></path>
                        <path d="M26.1553137,24.458549 L26.1553137,26.2558627 C19.9338431,32.1631176 15.8490392,26.482098 15.5725294,26.0924706 L16.6282941,35.5440784 L16.6408627,35.6194902 L16.6282941,35.6320588 L15.5725294,26.0673333 L15.924451,24.6093725 L15.924451,23.5284706 C15.924451,23.5284706 18.0988235,25.4137647 19.8332941,26.1427451 C20.3863137,26.381549 20.9016275,26.4946667 21.2786863,26.3941176 C21.4546471,26.3438431 21.6431765,26.2684314 21.8568431,26.180451 C23.5284706,25.438902 26.1678824,23.4781961 26.1678824,23.4781961 L26.1427451,24.5088235 L26.1553137,24.458549 Z" id="Shape" fill="#F6C49F" fill-rule="nonzero"></path>
                        <path d="M44.1661569,47.434 C44.1661569,47.434 44.1661569,47.434 43.588,44.1410196 C43.0098431,40.8480392 41.1748235,34.8528039 38.9627451,32.8292549 C37.2659804,31.2707451 30.6297451,28.2291373 27.6258431,26.8968627 L27.4750196,26.8340196 C26.9848431,26.6203529 26.5952157,26.4443922 26.3689804,26.3564118 L26.1427451,26.2558627 C19.9212745,32.1631176 15.8364706,26.482098 15.5599608,26.0924706 L15.5599608,26.0673333 L15.5473922,26.0673333 C15.5473922,26.0673333 15.5222549,26.079902 15.484549,26.1050392 L14.0894314,26.720902 L13.9888824,26.8842941 C10.8718627,28.5056471 4.09737255,32.0877059 2.55143137,33.4199804 C0.527882353,35.154451 0.0502745098,47.434 0.0502745098,47.434 L14.8812549,47.434 L14.8938235,47.4591373 L17.6337843,47.4591373 L17.6337843,47.434 L44.1661569,47.434 Z M21.1781373,30.7177255 L20.9644706,30.9942353 L20.951902,30.9816667 C21.0273137,30.8936863 21.1027255,30.8057059 21.1781373,30.7177255 Z" id="Shape" fill="#878CC5" fill-rule="nonzero"></path>
                        <path d="M26.1553137,26.2558627 C19.9338431,32.1631176 15.8490392,26.482098 15.5725294,26.0924706 C15.5599608,26.079902 15.5599608,26.0673333 15.5599608,26.0673333 L15.5725294,26.0673333 L19.8207255,26.1427451 L21.8442745,26.180451 L26.1553137,26.2558627 Z" id="Shape" fill="#F6C49F" fill-rule="nonzero"></path>
                    </g>
                </g>
            </g>
            <rect id="Rectangle-3" fill="#C5C5C5" x="97" y="27" width="98" height="24"></rect>
            <rect id="Rectangle-3-Copy" fill="#E8E8E8" x="97" y="62" width="80" height="10"></rect>
            <rect id="Rectangle-3-Copy-2" fill="#E8E8E8" x="27" y="101" width="54" height="10"></rect>
            <rect id="Rectangle-3-Copy-10" fill="#E8E8E8" x="27" y="165" width="54" height="10"></rect>
            <rect id="Rectangle-3-Copy-4" fill="#E8E8E8" x="27" y="121" width="34" height="10"></rect>
            <rect id="Rectangle-3-Copy-11" fill="#E8E8E8" x="27" y="185" width="34" height="10"></rect>
            <rect id="Rectangle-3-Copy-5" fill="#E8E8E8" x="27" y="141" width="43" height="10"></rect>
            <rect id="Rectangle-3-Copy-12" fill="#E8E8E8" x="27" y="205" width="43" height="10"></rect>
            <rect id="Rectangle-3-Copy-3" fill="#DDDDDD" x="97" y="101" width="78" height="10"></rect>
            <rect id="Rectangle-3-Copy-7" fill="#DDDDDD" x="97" y="170" width="60" height="10"></rect>
            <rect id="Rectangle-3-Copy-6" fill="#E8E8E8" x="97" y="121" width="120" height="35"></rect>
            <rect id="Rectangle-3-Copy-8" fill="#E8E8E8" x="97" y="190" width="120" height="35"></rect>
        </g>
        <g id="Group-4-Copy" transform="translate(360.000000, 201.500000) rotate(10.000000) translate(-360.000000, -201.500000) translate(238.000000, 29.000000)">
            <g id="Rectangle-2">
                <use fill="black" fill-opacity="1" filter="url(#filter-10)" xlink:href="#path-9"></use>
                <rect stroke="#D7D7D7" stroke-width="1" stroke-linejoin="square" fill="#FAFAFA" fill-rule="evenodd" x="0.5" y="0.5" width="243" height="344" rx="6"></rect>
            </g>
            <g id="Group-3" transform="translate(27.000000, 27.000000)">
                <circle id="Oval" fill="#BBEDFE" cx="24.5" cy="24.5" r="24.5"></circle>
                <g id="Group-2"></g>
                <mask id="mask-12" fill="white">
                    <use xlink:href="#path-11"></use>
                </mask>
                <g id="Oval"></g>
                <g id="Group" mask="url(#mask-12)">
                    <g transform="translate(2.000000, 6.000000)">
                        <path d="M16.9735075,25.070597 L16.9735075,26.5103731 L22.0325373,33.3790299 C27.5670896,26.9858955 27.6859701,26.6556716 27.6859701,26.6556716 L27.725597,25.0309701 C27.725597,25.0309701 24.2120149,27.6463433 22.5873134,28.0954478 C20.9758209,28.5313433 16.9735075,25.070597 16.9735075,25.070597 Z" id="Shape" fill="#F6C49F" fill-rule="nonzero"></path>
                        <path d="M22.2306716,27.2897015 C20.9097761,27.2897015 19.2718657,26.2990299 17.5018657,24.9385075 C17.3301493,24.8064179 17.1452239,24.6611194 16.9735075,24.5290299 L16.9735075,25.070597 C16.9735075,25.070597 20.9758209,28.5313433 22.6005224,28.0822388 C24.2252239,27.6331343 27.738806,25.0177612 27.738806,25.0177612 L27.738806,24.3441045 C27.4746269,24.5422388 27.1972388,24.7535821 26.9198507,24.9517164 C25.2291045,26.1537313 23.2477612,27.2897015 22.2306716,27.2897015 Z" id="Shape" fill="#AE8D6E" fill-rule="nonzero"></path>
                        <g id="Group" stroke-width="1" fill="none" fill-rule="evenodd" transform="translate(11.623881, 0.000000)">
                            <path d="M5.94402985,26.7085075 L5.94402985,25.0309701 L15.2827612,25.0309701 C15.2827612,25.0309701 14.5298507,26.9594776 14.2788806,27.725597 C14.1996269,27.9765672 14.9261194,28.5313433 16.0092537,29.1653731 C17.2508955,28.016194 18.4000746,26.8934328 18.7567164,26.3386567 C19.6285075,24.9781343 20.3814179,21.2796269 20.2097015,19.6681343 L20.1568657,16.7357463 C20.1568657,16.7357463 20.2757463,11.9012687 20.1568657,10.1708955 C20.0379851,8.44052239 18.5321642,7.44985075 18.5321642,7.44985075 C18.5321642,7.44985075 18.5321642,7.44985075 17.990597,5.23074627 C17.4490299,3.01164179 14.9525373,0.290597015 11.9144776,0.0528358209 C8.87641791,-0.198134328 7.4630597,1.90208955 7.4630597,1.90208955 C7.4630597,1.90208955 7.4630597,1.90208955 6.8158209,1.41335821 C6.16858209,0.91141791 3.23619403,3.01164179 1.36052239,8.18955224 C-0.0660447761,12.1522388 -0.184925373,13.9486567 0.501940299,17.9509701 C0.501940299,17.9509701 0.501940299,17.9509701 0.501940299,17.9509701 C0.58119403,18.4397015 0.686865672,18.9548507 0.792537313,19.5096269 C0.792537313,19.5096269 0.792537313,19.5096269 0.792537313,19.5096269 C0.951044776,20.355 1.1491791,21.3060448 1.36052239,22.3759701 C1.91529851,25.1498507 3.1569403,27.2500746 4.50425373,28.8087313 C5.23074627,28.5181343 5.70626866,28.306791 5.70626866,28.306791 L5.94402985,26.7085075 Z" id="Shape" fill="#BB9C40" fill-rule="nonzero"></path>
                            <path d="M20.2097015,17.2905224 C19.8002239,17.9641791 19.2850746,18.4925373 19.2850746,18.4925373 C19.2850746,18.4925373 18.7170896,21.6891045 17.7792537,22.9043284 C17.3829851,23.4194776 16.3394776,24.3176866 15.1374627,25.1630597 C13.5127612,26.3254478 11.6106716,27.4085821 10.633209,27.4085821 C9.36514925,27.4085821 7.78007463,26.4575373 6.0761194,25.1498507 C5.50813433,24.7139552 4.9269403,24.2384328 4.33253731,23.7497015 C1.98134328,21.7815672 2.36440299,18.8623881 2.36440299,18.8623881 C2.36440299,18.8623881 1.30768657,18.2283582 0.779328358,17.1584328 C0.779328358,17.1584328 0.779328358,17.1584328 0.779328358,17.1584328 C0.60761194,16.801791 0.488731343,16.3923134 0.488731343,15.943209 C0.488731343,15.8903731 0.488731343,15.8375373 0.488731343,15.7847015 C0.488731343,15.7847015 0.488731343,15.7847015 0.488731343,15.7847015 C0.541567164,15.045 0.924626866,14.6487313 1.34731343,14.4241791 L2.60216418,16.524403 C2.60216418,16.524403 2.36440299,14.16 2.60216418,12.1786567 C2.60216418,12.1390299 2.61537313,12.099403 2.61537313,12.0597761 C2.62858209,11.9805224 2.64179104,11.9012687 2.655,11.8220149 C2.655,11.8220149 2.655,11.8220149 2.655,11.808806 C2.99843284,10.038806 4.24007463,8.87641791 5.0458209,8.05746269 C5.91761194,7.18567164 5.21753731,5.61380597 7.97820896,5.12507463 C10.7388806,4.63634328 10.5803731,7.41022388 13.3014179,11.2408209 C16.0224627,15.0714179 16.9999254,12.086194 18.1887313,12.6277612 C19.3907463,13.1693284 18.7302985,16.5376119 18.7302985,16.5376119 L20.1304478,14.7147761 C20.3946269,14.9657463 20.6191791,15.3091791 20.658806,15.7714925 C20.7380597,16.2734328 20.5002985,16.828209 20.2097015,17.2905224 Z" id="Shape" fill="#F6C49F" fill-rule="nonzero"></path>
                        </g>
                        <g id="Group" stroke-width="1" fill="none" fill-rule="evenodd" transform="translate(0.000000, 26.417910)">
                            <polygon id="Shape" fill="#FFFFFF" fill-rule="nonzero" points="26.3122388 0.105671642 29.5880597 3.63246269 25.374403 10.0520149 22.0325373 6.71014925"></polygon>
                            <polygon id="Shape" fill="#FFFFFF" fill-rule="nonzero" points="21.5570149 7.29134328 21.5570149 18.8227612 22.6929851 18.8227612 22.6929851 7.38380597 22.0325373 6.72335821"></polygon>
                            <path d="M29.5880597,3.63246269 C29.5880597,3.63246269 34.4093284,6.23462687 37.1435821,6.72335821 C39.8910448,7.21208955 42.9291045,8.2291791 43.6423881,12.7730597 C44.3556716,17.3169403 44.2235821,18.8227612 44.2235821,18.8227612 L22.6929851,18.8227612 L22.6929851,7.38380597 L25.374403,10.0652239 L29.5880597,3.63246269 Z" id="Shape" fill="#278086" fill-rule="nonzero"></path>
                            <g transform="translate(0.000000, 0.528358)" fill-rule="nonzero" id="Shape">
                                <polygon fill="#FFFFFF" points="21.1079104 7.30455224 22.0325373 6.195 17.5282836 0.0132089552 14.7015672 3.14373134 18.875597 9.52365672"></polygon>
                                <path d="M18.875597,9.52365672 L14.7015672,3.14373134 L14.6751493,3.09089552 C14.6751493,3.09089552 9.8538806,5.6930597 7.11962687,6.18179104 C4.37216418,6.67052239 1.33410448,7.68761194 0.620820896,12.2314925 C-0.105671642,16.7621642 0.0396268657,18.281194 0.0396268657,18.281194 L21.5702239,18.281194 L21.5702239,6.84223881 L21.1211194,7.29134328 L18.875597,9.52365672 Z" fill="#278086"></path>
                            </g>
                        </g>
                    </g>
                </g>
            </g>
            <rect id="Rectangle-3" fill="#C5C5C5" x="97" y="27" width="98" height="24"></rect>
            <rect id="Rectangle-3-Copy" fill="#E8E8E8" x="97" y="62" width="80" height="10"></rect>
            <rect id="Rectangle-3-Copy-2" fill="#E8E8E8" x="27" y="101" width="54" height="10"></rect>
            <rect id="Rectangle-3-Copy-10" fill="#E8E8E8" x="27" y="165" width="54" height="10"></rect>
            <rect id="Rectangle-3-Copy-16" fill="#E8E8E8" x="117" y="268" width="80" height="10"></rect>
            <rect id="Rectangle-3-Copy-17" fill="#E8E8E8" x="117" y="288" width="64" height="10"></rect>
            <rect id="Rectangle-3-Copy-18" fill="#E8E8E8" x="117" y="308" width="91" height="10"></rect>
            <rect id="Rectangle-3-Copy-4" fill="#E8E8E8" x="27" y="121" width="34" height="10"></rect>
            <rect id="Rectangle-3-Copy-11" fill="#E8E8E8" x="27" y="185" width="34" height="10"></rect>
            <rect id="Rectangle-3-Copy-5" fill="#E8E8E8" x="27" y="141" width="43" height="10"></rect>
            <rect id="Rectangle-3-Copy-12" fill="#E8E8E8" x="27" y="205" width="43" height="10"></rect>
            <rect id="Rectangle-3-Copy-3" fill="#DDDDDD" x="97" y="101" width="78" height="10"></rect>
            <rect id="Rectangle-3-Copy-7" fill="#DDDDDD" x="97" y="170" width="60" height="10"></rect>
            <rect id="Rectangle-3-Copy-9" fill="#DDDDDD" x="97" y="248" width="120" height="10"></rect>
            <rect id="Rectangle-3-Copy-6" fill="#E8E8E8" x="97" y="121" width="120" height="35"></rect>
            <rect id="Rectangle-3-Copy-8" fill="#E8E8E8" x="97" y="190" width="120" height="35"></rect>
            <rect id="Rectangle-3-Copy-13" fill="#B5B5B5" x="97" y="268" width="10" height="10"></rect>
            <rect id="Rectangle-3-Copy-14" fill="#B5B5B5" x="97" y="288" width="10" height="10"></rect>
            <rect id="Rectangle-3-Copy-15" fill="#B5B5B5" x="97" y="308" width="10" height="10"></rect>
        </g>
        <g id="Group" filter="url(#filter-13)" transform="translate(257.021648, 332.118249) rotate(-7.000000) translate(-257.021648, -332.118249) translate(201.521648, 232.118249)">
            <path d="M105.23697,0 L4.7409007,0 C2.14994334,0 0,2.09236096 0,4.73534322 L0,194.424383 C0,197.012303 2.09481659,199.159726 4.7409007,199.159726 L105.292097,199.159726 C107.883054,199.159726 110.032998,197.067365 110.032998,194.424383 L110.032998,4.68028109 C109.977871,2.09236096 107.827928,0 105.23697,0 Z" id="Shape" fill="#F0F0F1" fill-rule="nonzero"></path>
            <rect id="Rectangle-path" fill="#39484F" fill-rule="nonzero" x="4.40131991" y="16.5049497" width="101.230358" height="161.748507"></rect>
            <rect id="Rectangle-path" fill="#34454D" fill-rule="nonzero" x="9.9029698" y="22.0065995" width="91.3273881" height="151.845537"></rect>
            <g id="Group-8" transform="translate(24.207260, 132.039597)">
                <circle id="Oval-3" fill="#3E535B" cx="12.1036298" cy="12.1036298" r="12.1036298"></circle>
                <rect id="Rectangle" fill="#9DABB0" x="7.70230984" y="7.70230984" width="8.80263982" height="8.80263982"></rect>
                <circle id="Oval-3-Copy" fill="#3E535B" cx="51.7155089" cy="12.1036298" r="12.1036298"></circle>
                <rect id="Rectangle-Copy" fill="#9DABB0" x="52.8158389" y="7.70230984" width="2.20065995" height="8.80263982"></rect>
                <rect id="Rectangle-Copy" fill="#9DABB0" x="48.414519" y="7.70230984" width="2.20065995" height="8.80263982"></rect>
            </g>
            <path d="M64.3185403,12.1036298 L45.7144574,12.1036298 C44.7815093,12.1036298 44.0131991,11.3582449 44.0131991,10.4531348 C44.0131991,9.54802464 44.7815093,8.80263982 45.7144574,8.80263982 L64.3185403,8.80263982 C65.2514884,8.80263982 66.0197986,9.54802464 66.0197986,10.4531348 C65.9649193,11.3582449 65.2514884,12.1036298 64.3185403,12.1036298 Z" id="Shape" fill="#39484F" fill-rule="nonzero"></path>
            <circle id="Oval" fill="#39484F" fill-rule="nonzero" cx="78.1234284" cy="9.9029698" r="3.30098993"></circle>
            <path d="M78.1234284,12.1036298 C76.9008395,12.1036298 75.9227684,11.1255587 75.9227684,9.9029698 C75.9227684,8.68038093 76.9008395,7.70230984 78.1234284,7.70230984 C79.3460173,7.70230984 80.3240883,8.68038093 80.3240883,9.9029698 C80.3240883,11.1255587 79.3460173,12.1036298 78.1234284,12.1036298 Z" id="Shape" fill="#55707A" fill-rule="nonzero"></path>
            <g opacity="0.2" transform="translate(75.922768, 8.802640)" fill="#F0F0F1" fill-rule="nonzero" id="Shape">
                <path d="M3.33242793,0.440131991 L0.125751997,3.24597343 C0.565883988,3.63108893 1.13176798,3.90617142 1.82340396,3.90617142 C3.08092394,3.90617142 4.08693992,3.02590744 4.08693992,1.92557746 C4.08693992,1.32039597 3.77255992,0.770230984 3.33242793,0.440131991 Z"></path>
            </g>
            <path d="M61.58071,182.654776 L48.4522878,182.654776 C45.4056075,182.654776 42.9128691,185.130519 42.9128691,188.156426 C42.9128691,191.182334 45.4056075,193.658076 48.4522878,193.658076 L61.58071,193.658076 C64.6273902,193.658076 67.1201286,191.182334 67.1201286,188.156426 C67.1201286,185.075502 64.6273902,182.654776 61.58071,182.654776 Z" id="Shape" fill="#E1E2E2" fill-rule="nonzero"></path>
            <path d="M48.4353454,190.357086 C47.2135279,190.357086 46.213859,189.366789 46.213859,188.156426 C46.213859,186.946063 47.2135279,185.955766 48.4353454,185.955766 L61.5976523,185.955766 C62.8194698,185.955766 63.8191387,186.946063 63.8191387,188.156426 C63.8191387,189.366789 62.8194698,190.357086 61.5976523,190.357086 L48.4353454,190.357086 Z" id="Shape" fill="#BDBDBD" fill-rule="nonzero"></path>
            <path d="M29.6219833,59.3044848 C29.6219833,60.2852505 29.5167195,61.1350635 29.3061886,61.8539493 C29.0956578,62.5728352 28.8042566,63.1684745 28.4319765,63.6408852 C28.0596963,64.1132959 27.6181016,64.4650312 27.1071792,64.6961017 C26.5962567,64.9271721 26.0429797,65.0427056 25.4473314,65.0427056 C24.8516831,65.0427056 24.3009735,64.9271721 23.7951859,64.6961017 C23.2893984,64.4650312 22.8516548,64.1132959 22.4819421,63.6408852 C22.1122294,63.1684745 21.8233956,62.5728352 21.6154322,61.8539493 C21.4074688,61.1350635 21.3034887,60.2852505 21.3034887,59.3044848 C21.3034887,58.3237191 21.4074688,57.4739061 21.6154322,56.7550202 C21.8233956,56.0361344 22.1122294,55.440495 22.4819421,54.9680843 C22.8516548,54.4956737 23.2893984,54.1452221 23.7951859,53.9167191 C24.3009735,53.6882161 24.8516831,53.5739663 25.4473314,53.5739663 C26.0429797,53.5739663 26.5962567,53.6882161 27.1071792,53.9167191 C27.6181016,54.1452221 28.0596963,54.4956737 28.4319765,54.9680843 C28.8042566,55.440495 29.0956578,56.0361344 29.3061886,56.7550202 C29.5167195,57.4739061 29.6219833,58.3237191 29.6219833,59.3044848 Z M27.1572442,59.3044848 C27.1572442,58.5291151 27.1084634,57.8936808 27.0109003,57.3981631 C26.9133372,56.9026454 26.783683,56.5136826 26.6219336,56.2312632 C26.4601843,55.9488437 26.2766144,55.7550042 26.0712185,55.6497388 C25.8658225,55.5444733 25.6578622,55.4918414 25.4473314,55.4918414 C25.2368005,55.4918414 25.030124,55.5444733 24.8272954,55.6497388 C24.6244669,55.7550042 24.4447482,55.9488437 24.2881338,56.2312632 C24.1315193,56.5136826 24.0057162,56.9026454 23.9107206,57.3981631 C23.8157249,57.8936808 23.7682278,58.5291151 23.7682278,59.3044848 C23.7682278,60.0849894 23.8157249,60.7217073 23.9107206,61.2146576 C24.0057162,61.7076079 24.1315193,62.0965707 24.2881338,62.3815576 C24.4447482,62.6665445 24.6244669,62.8616677 24.8272954,62.9669331 C25.030124,63.0721985 25.2368005,63.1248305 25.4473314,63.1248305 C25.6578622,63.1248305 25.8658225,63.0721985 26.0712185,62.9669331 C26.2766144,62.8616677 26.4601843,62.6665445 26.6219336,62.3815576 C26.783683,62.0965707 26.9133372,61.7076079 27.0109003,61.2146576 C27.1084634,60.7217073 27.1572442,60.0849894 27.1572442,59.3044848 Z M39.3268937,59.3044848 C39.3268937,60.2852505 39.2216299,61.1350635 39.011099,61.8539493 C38.8005682,62.5728352 38.509167,63.1684745 38.1368869,63.6408852 C37.7646067,64.1132959 37.323012,64.4650312 36.8120896,64.6961017 C36.3011671,64.9271721 35.7478901,65.0427056 35.1522418,65.0427056 C34.5565935,65.0427056 34.0058839,64.9271721 33.5000963,64.6961017 C32.9943088,64.4650312 32.5565652,64.1132959 32.1868525,63.6408852 C31.8171398,63.1684745 31.528306,62.5728352 31.3203426,61.8539493 C31.1123792,61.1350635 31.0083991,60.2852505 31.0083991,59.3044848 C31.0083991,58.3237191 31.1123792,57.4739061 31.3203426,56.7550202 C31.528306,56.0361344 31.8171398,55.440495 32.1868525,54.9680843 C32.5565652,54.4956737 32.9943088,54.1452221 33.5000963,53.9167191 C34.0058839,53.6882161 34.5565935,53.5739663 35.1522418,53.5739663 C35.7478901,53.5739663 36.3011671,53.6882161 36.8120896,53.9167191 C37.323012,54.1452221 37.7646067,54.4956737 38.1368869,54.9680843 C38.509167,55.440495 38.8005682,56.0361344 39.011099,56.7550202 C39.2216299,57.4739061 39.3268937,58.3237191 39.3268937,59.3044848 Z M36.8621546,59.3044848 C36.8621546,58.5291151 36.8133738,57.8936808 36.7158107,57.3981631 C36.6182476,56.9026454 36.4885934,56.5136826 36.326844,56.2312632 C36.1650947,55.9488437 35.9815248,55.7550042 35.7761289,55.6497388 C35.5707329,55.5444733 35.3627726,55.4918414 35.1522418,55.4918414 C34.9417109,55.4918414 34.7350344,55.5444733 34.5322058,55.6497388 C34.3293773,55.7550042 34.1496586,55.9488437 33.9930442,56.2312632 C33.8364297,56.5136826 33.7106266,56.9026454 33.615631,57.3981631 C33.5206353,57.8936808 33.4731382,58.5291151 33.4731382,59.3044848 C33.4731382,60.0849894 33.5206353,60.7217073 33.615631,61.2146576 C33.7106266,61.7076079 33.8364297,62.0965707 33.9930442,62.3815576 C34.1496586,62.6665445 34.3293773,62.8616677 34.5322058,62.9669331 C34.7350344,63.0721985 34.9417109,63.1248305 35.1522418,63.1248305 C35.3627726,63.1248305 35.5707329,63.0721985 35.7761289,62.9669331 C35.9815248,62.8616677 36.1650947,62.6665445 36.326844,62.3815576 C36.4885934,62.0965707 36.6182476,61.7076079 36.7158107,61.2146576 C36.8133738,60.7217073 36.8621546,60.0849894 36.8621546,59.3044848 Z M41.1754481,63.710206 C41.1754481,63.5253497 41.2101081,63.3533331 41.2794293,63.1941513 C41.3487504,63.0349694 41.4437446,62.8963292 41.5644147,62.7782265 C41.6850849,62.6601239 41.8275762,62.5664134 41.9918929,62.4970922 C42.1562097,62.4277711 42.3359285,62.393111 42.5310546,62.393111 C42.7210459,62.393111 42.8981972,62.4277711 43.062514,62.4970922 C43.2268308,62.5664134 43.3706058,62.6601239 43.4938433,62.7782265 C43.6170809,62.8963292 43.7133588,63.0349694 43.78268,63.1941513 C43.8520011,63.3533331 43.8866611,63.5253497 43.8866611,63.710206 C43.8866611,63.8950624 43.8520011,64.0683626 43.78268,64.2301119 C43.7133588,64.3918612 43.6170809,64.5317851 43.4938433,64.6498878 C43.3706058,64.7679905 43.2268308,64.8604173 43.062514,64.927171 C42.8981972,64.9939247 42.7210459,65.027301 42.5310546,65.027301 C42.3359285,65.027301 42.1562097,64.9939247 41.9918929,64.927171 C41.8275762,64.8604173 41.6850849,64.7679905 41.5644147,64.6498878 C41.4437446,64.5317851 41.3487504,64.3918612 41.2794293,64.2301119 C41.2101081,64.0683626 41.1754481,63.8950624 41.1754481,63.710206 Z M41.1754481,58.4495284 C41.1754481,58.264672 41.2101081,58.0926555 41.2794293,57.9334736 C41.3487504,57.7742918 41.4437446,57.6356516 41.5644147,57.5175489 C41.6850849,57.3994462 41.8275762,57.3057357 41.9918929,57.2364146 C42.1562097,57.1670935 42.3359285,57.1324334 42.5310546,57.1324334 C42.7210459,57.1324334 42.8981972,57.1670935 43.062514,57.2364146 C43.2268308,57.3057357 43.3706058,57.3994462 43.4938433,57.5175489 C43.6170809,57.6356516 43.7133588,57.7742918 43.78268,57.9334736 C43.8520011,58.0926555 43.8866611,58.264672 43.8866611,58.4495284 C43.8866611,58.6343848 43.8520011,58.807685 43.78268,58.9694343 C43.7133588,59.1311836 43.6170809,59.2711075 43.4938433,59.3892102 C43.3706058,59.5073129 43.2268308,59.5997397 43.062514,59.6664934 C42.8981972,59.733247 42.7210459,59.7666234 42.5310546,59.7666234 C42.3359285,59.7666234 42.1562097,59.733247 41.9918929,59.6664934 C41.8275762,59.5997397 41.6850849,59.5073129 41.5644147,59.3892102 C41.4437446,59.2711075 41.3487504,59.1311836 41.2794293,58.9694343 C41.2101081,58.807685 41.1754481,58.6343848 41.1754481,58.4495284 Z M54.0537101,59.3044848 C54.0537101,60.2852505 53.9484463,61.1350635 53.7379154,61.8539493 C53.5273846,62.5728352 53.2359834,63.1684745 52.8637033,63.6408852 C52.4914231,64.1132959 52.0498284,64.4650312 51.538906,64.6961017 C51.0279835,64.9271721 50.4747065,65.0427056 49.8790582,65.0427056 C49.2834099,65.0427056 48.7327003,64.9271721 48.2269127,64.6961017 C47.7211252,64.4650312 47.2833816,64.1132959 46.9136689,63.6408852 C46.5439562,63.1684745 46.2551225,62.5728352 46.0471591,61.8539493 C45.8391957,61.1350635 45.7352155,60.2852505 45.7352155,59.3044848 C45.7352155,58.3237191 45.8391957,57.4739061 46.0471591,56.7550202 C46.2551225,56.0361344 46.5439562,55.440495 46.9136689,54.9680843 C47.2833816,54.4956737 47.7211252,54.1452221 48.2269127,53.9167191 C48.7327003,53.6882161 49.2834099,53.5739663 49.8790582,53.5739663 C50.4747065,53.5739663 51.0279835,53.6882161 51.538906,53.9167191 C52.0498284,54.1452221 52.4914231,54.4956737 52.8637033,54.9680843 C53.2359834,55.440495 53.5273846,56.0361344 53.7379154,56.7550202 C53.9484463,57.4739061 54.0537101,58.3237191 54.0537101,59.3044848 Z M51.588971,59.3044848 C51.588971,58.5291151 51.5401902,57.8936808 51.4426271,57.3981631 C51.345064,56.9026454 51.2154098,56.5136826 51.0536605,56.2312632 C50.8919111,55.9488437 50.7083413,55.7550042 50.5029453,55.6497388 C50.2975493,55.5444733 50.0895891,55.4918414 49.8790582,55.4918414 C49.6685273,55.4918414 49.4618508,55.5444733 49.2590223,55.6497388 C49.0561938,55.7550042 48.876475,55.9488437 48.7198606,56.2312632 C48.5632462,56.5136826 48.437443,56.9026454 48.3424474,57.3981631 C48.2474518,57.8936808 48.1999547,58.5291151 48.1999547,59.3044848 C48.1999547,60.0849894 48.2474518,60.7217073 48.3424474,61.2146576 C48.437443,61.7076079 48.5632462,62.0965707 48.7198606,62.3815576 C48.876475,62.6665445 49.0561938,62.8616677 49.2590223,62.9669331 C49.4618508,63.0721985 49.6685273,63.1248305 49.8790582,63.1248305 C50.0895891,63.1248305 50.2975493,63.0721985 50.5029453,62.9669331 C50.7083413,62.8616677 50.8919111,62.6665445 51.0536605,62.3815576 C51.2154098,62.0965707 51.345064,61.7076079 51.4426271,61.2146576 C51.5401902,60.7217073 51.588971,60.0849894 51.588971,59.3044848 Z M59.0756162,60.5445567 C58.7110383,60.5445567 58.346466,60.4790877 57.9818882,60.3481478 C57.6173103,60.2172079 57.287398,60.0182335 56.9921413,59.7512188 C56.6968847,59.484204 56.4568317,59.1478732 56.2719754,58.7422162 C56.087119,58.3365592 55.9946922,57.8564533 55.9946922,57.3018842 C55.9946922,56.7935292 56.0884027,56.3134234 56.2758265,55.8615523 C56.4632503,55.4096812 56.7302611,55.0142999 57.0768668,54.6753966 C57.4234724,54.3364932 57.8381093,54.0681988 58.3207898,53.8705052 C58.8034703,53.6728116 59.3426266,53.5739663 59.9382749,53.5739663 C60.5441929,53.5739663 61.0859166,53.6663931 61.5634622,53.8512494 C62.0410078,54.0361058 62.4453751,54.2954143 62.776576,54.6291827 C63.107777,54.9629511 63.3619507,55.3596161 63.5391047,55.8191896 C63.7162587,56.278763 63.8048344,56.7858267 63.8048344,57.3403958 C63.8048344,57.7101085 63.7753092,58.056709 63.7162578,58.3802076 C63.6572065,58.7037062 63.5750493,59.0130793 63.4697839,59.3083359 C63.3645185,59.6035926 63.2374317,59.8860078 63.0885196,60.15559 C62.9396075,60.4251722 62.7727258,60.6908993 62.5878694,60.9527791 L60.1693442,64.3880093 C60.0666462,64.5369214 59.9048993,64.6627245 59.6840986,64.7654225 C59.463298,64.8681204 59.2142591,64.9194687 58.9369746,64.9194687 L56.734114,64.9194687 L60.2925811,60.6677936 C60.3644697,60.5805004 60.4325061,60.4970595 60.4966923,60.4174686 C60.5608786,60.3378776 60.6237801,60.2570042 60.6853989,60.1748458 C60.4543285,60.2980834 60.2027222,60.3905102 59.9305725,60.452129 C59.6584229,60.5137477 59.3734403,60.5445567 59.0756162,60.5445567 Z M61.5249507,57.1247311 C61.5249507,56.8525815 61.4851558,56.6125285 61.4055649,56.4045651 C61.3259739,56.1966017 61.2155753,56.0233015 61.0743656,55.8846592 C60.9331558,55.746017 60.762423,55.6407531 60.562162,55.5688645 C60.3619009,55.4969759 60.143671,55.4610322 59.9074656,55.4610322 C59.6661254,55.4610322 59.4517466,55.5033945 59.2643227,55.5881203 C59.0768989,55.6728461 58.9177195,55.7896633 58.7867795,55.9385754 C58.6558396,56.0874875 58.5557106,56.2633551 58.4863895,56.4661836 C58.4170683,56.6690121 58.3824083,56.8885258 58.3824083,57.1247311 C58.3824083,58.2441391 58.9010253,58.8038347 59.9382749,58.8038347 C60.4466298,58.8038347 60.83816,58.6510737 61.1128771,58.3455472 C61.3875942,58.0400207 61.5249507,57.6330861 61.5249507,57.1247311 Z M65.6071749,63.710206 C65.6071749,63.5253497 65.6418349,63.3533331 65.7111561,63.1941513 C65.7804772,63.0349694 65.8754714,62.8963292 65.9961415,62.7782265 C66.1168117,62.6601239 66.259303,62.5664134 66.4236197,62.4970922 C66.5879365,62.4277711 66.7676553,62.393111 66.9627814,62.393111 C67.1527727,62.393111 67.329924,62.4277711 67.4942408,62.4970922 C67.6585576,62.5664134 67.8023326,62.6601239 67.9255702,62.7782265 C68.0488077,62.8963292 68.1450856,63.0349694 68.2144068,63.1941513 C68.2837279,63.3533331 68.318388,63.5253497 68.318388,63.710206 C68.318388,63.8950624 68.2837279,64.0683626 68.2144068,64.2301119 C68.1450856,64.3918612 68.0488077,64.5317851 67.9255702,64.6498878 C67.8023326,64.7679905 67.6585576,64.8604173 67.4942408,64.927171 C67.329924,64.9939247 67.1527727,65.027301 66.9627814,65.027301 C66.7676553,65.027301 66.5879365,64.9939247 66.4236197,64.927171 C66.259303,64.8604173 66.1168117,64.7679905 65.9961415,64.6498878 C65.8754714,64.5317851 65.7804772,64.3918612 65.7111561,64.2301119 C65.6418349,64.0683626 65.6071749,63.8950624 65.6071749,63.710206 Z M65.6071749,58.4495284 C65.6071749,58.264672 65.6418349,58.0926555 65.7111561,57.9334736 C65.7804772,57.7742918 65.8754714,57.6356516 65.9961415,57.5175489 C66.1168117,57.3994462 66.259303,57.3057357 66.4236197,57.2364146 C66.5879365,57.1670935 66.7676553,57.1324334 66.9627814,57.1324334 C67.1527727,57.1324334 67.329924,57.1670935 67.4942408,57.2364146 C67.6585576,57.3057357 67.8023326,57.3994462 67.9255702,57.5175489 C68.0488077,57.6356516 68.1450856,57.7742918 68.2144068,57.9334736 C68.2837279,58.0926555 68.318388,58.264672 68.318388,58.4495284 C68.318388,58.6343848 68.2837279,58.807685 68.2144068,58.9694343 C68.1450856,59.1311836 68.0488077,59.2711075 67.9255702,59.3892102 C67.8023326,59.5073129 67.6585576,59.5997397 67.4942408,59.6664934 C67.329924,59.733247 67.1527727,59.7666234 66.9627814,59.7666234 C66.7676553,59.7666234 66.5879365,59.733247 66.4236197,59.6664934 C66.259303,59.5997397 66.1168117,59.5073129 65.9961415,59.3892102 C65.8754714,59.2711075 65.7804772,59.1311836 65.7111561,58.9694343 C65.6418349,58.807685 65.6071749,58.6343848 65.6071749,58.4495284 Z M71.799832,63.1941513 L73.9564788,63.1941513 L73.9564788,57.5329535 C73.9564788,57.255669 73.964181,56.9655515 73.9795857,56.6625925 L72.7087046,57.717809 C72.6265462,57.7845626 72.544389,57.8320598 72.4622307,57.8603017 C72.3800723,57.8885436 72.3004825,57.9026644 72.2234591,57.9026644 C72.0899517,57.9026644 71.9705671,57.8731392 71.8653016,57.8140878 C71.7600362,57.7550365 71.6817302,57.6921349 71.6303812,57.6253812 L70.8755548,56.624081 L74.3724035,53.6895009 L76.3441948,53.6895009 L76.3441948,63.1941513 L78.1927492,63.1941513 L78.1927492,64.9194687 L71.799832,64.9194687 L71.799832,63.1941513 Z M88.1903474,59.3044848 C88.1903474,60.2852505 88.0850835,61.1350635 87.8745527,61.8539493 C87.6640218,62.5728352 87.3726207,63.1684745 87.0003405,63.6408852 C86.6280603,64.1132959 86.1864656,64.4650312 85.6755432,64.6961017 C85.1646208,64.9271721 84.6113437,65.0427056 84.0156954,65.0427056 C83.4200471,65.0427056 82.8693375,64.9271721 82.36355,64.6961017 C81.8577624,64.4650312 81.4200189,64.1132959 81.0503061,63.6408852 C80.6805934,63.1684745 80.3917597,62.5728352 80.1837963,61.8539493 C79.9758329,61.1350635 79.8718527,60.2852505 79.8718527,59.3044848 C79.8718527,58.3237191 79.9758329,57.4739061 80.1837963,56.7550202 C80.3917597,56.0361344 80.6805934,55.440495 81.0503061,54.9680843 C81.4200189,54.4956737 81.8577624,54.1452221 82.36355,53.9167191 C82.8693375,53.6882161 83.4200471,53.5739663 84.0156954,53.5739663 C84.6113437,53.5739663 85.1646208,53.6882161 85.6755432,53.9167191 C86.1864656,54.1452221 86.6280603,54.4956737 87.0003405,54.9680843 C87.3726207,55.440495 87.6640218,56.0361344 87.8745527,56.7550202 C88.0850835,57.4739061 88.1903474,58.3237191 88.1903474,59.3044848 Z M85.7256082,59.3044848 C85.7256082,58.5291151 85.6768274,57.8936808 85.5792643,57.3981631 C85.4817012,56.9026454 85.352047,56.5136826 85.1902977,56.2312632 C85.0285484,55.9488437 84.8449785,55.7550042 84.6395825,55.6497388 C84.4341866,55.5444733 84.2262263,55.4918414 84.0156954,55.4918414 C83.8051646,55.4918414 83.598488,55.5444733 83.3956595,55.6497388 C83.192831,55.7550042 83.0131122,55.9488437 82.8564978,56.2312632 C82.6998834,56.5136826 82.5740802,56.9026454 82.4790846,57.3981631 C82.384089,57.8936808 82.3365919,58.5291151 82.3365919,59.3044848 C82.3365919,60.0849894 82.384089,60.7217073 82.4790846,61.2146576 C82.5740802,61.7076079 82.6998834,62.0965707 82.8564978,62.3815576 C83.0131122,62.6665445 83.192831,62.8616677 83.3956595,62.9669331 C83.598488,63.0721985 83.8051646,63.1248305 84.0156954,63.1248305 C84.2262263,63.1248305 84.4341866,63.0721985 84.6395825,62.9669331 C84.8449785,62.8616677 85.0285484,62.6665445 85.1902977,62.3815576 C85.352047,62.0965707 85.4817012,61.7076079 85.5792643,61.2146576 C85.6768274,60.7217073 85.7256082,60.0849894 85.7256082,59.3044848 Z" id="00:09:10" fill="#D9D9D9"></path>
            <g id="Group-5" transform="translate(23.106930, 74.822438)" fill="#C03333">
                <circle id="Oval-2" cx="4.40131991" cy="4.40131991" r="4.40131991"></circle>
                <path d="M16.7992879,5.69420763 L16.7992879,8.80263982 L15.3193441,8.80263982 L15.3193441,0.847254083 L17.7455717,0.847254083 C18.2884039,0.847254083 18.7532886,0.903186964 19.14024,1.0150544 C19.5271913,1.12692184 19.8444499,1.2837173 20.0920254,1.48544547 C20.3396009,1.68717364 20.5211535,1.92832688 20.6366887,2.20891243 C20.752224,2.48949798 20.8099907,2.79850422 20.8099907,3.13594044 C20.8099907,3.40368874 20.7705626,3.6567621 20.6917052,3.89516812 C20.6128478,4.13357414 20.4991482,4.34997021 20.3506029,4.54436281 C20.2020576,4.73875541 20.0186711,4.90930485 19.8004379,5.05601625 C19.5822047,5.20272764 19.333716,5.320095 19.0549644,5.40812184 C19.2420214,5.5144876 19.4034015,5.66669839 19.5391096,5.86475878 L21.5307068,8.80263982 L20.1993076,8.80263982 C20.0709351,8.80263982 19.9618201,8.77696571 19.8719594,8.72561672 C19.7820987,8.67426773 19.7059933,8.60091313 19.6436409,8.50555073 L17.9711394,5.95828683 C17.908787,5.86292442 17.8400171,5.79507142 17.7648275,5.75472578 C17.6896379,5.71438015 17.5786891,5.69420763 17.4319777,5.69420763 L16.7992879,5.69420763 Z M16.7992879,4.6323892 L17.7235651,4.6323892 C18.0023168,4.6323892 18.2453039,4.59754577 18.4525337,4.52785786 C18.6597636,4.45816994 18.830313,4.36189203 18.9641872,4.23902124 C19.0980613,4.11615044 19.1980069,3.97035818 19.2640271,3.80164007 C19.3300472,3.63292197 19.3630568,3.4477016 19.3630568,3.24597343 C19.3630568,2.84251709 19.2301016,2.53259391 18.9641872,2.3161946 C18.6982728,2.09979529 18.2920717,1.99159726 17.7455717,1.99159726 L16.7992879,1.99159726 L16.7992879,4.6323892 Z M24.7326671,3.06992064 C25.0884422,3.06992064 25.4157871,3.12677045 25.7147116,3.24047178 C26.013636,3.35417312 26.2712941,3.52013789 26.4876934,3.7383711 C26.7040927,3.9566043 26.8728083,4.22434859 26.9938452,4.54161198 C27.1148821,4.85887538 27.1753996,5.22106371 27.1753996,5.62818783 C27.1753996,5.73088581 27.170815,5.81616053 27.1616455,5.88401455 C27.152476,5.95186858 27.1359712,6.00505066 27.1121306,6.0435624 C27.08829,6.08207414 27.0561974,6.10958212 27.0158518,6.12608715 C26.9755061,6.14259218 26.9241579,6.15084457 26.8618056,6.15084457 L23.3737595,6.15084457 C23.4141052,6.73035459 23.5699837,7.15581126 23.8413998,7.42722735 C24.1128159,7.69864343 24.4722534,7.83434944 24.9197232,7.83434944 C25.1397903,7.83434944 25.3295953,7.80867533 25.4891439,7.75732634 C25.6486926,7.70597735 25.7880663,7.64912754 25.9072693,7.58677519 C26.0264723,7.52442285 26.1310026,7.46757304 26.2208634,7.41622405 C26.3107241,7.36487506 26.3978327,7.33920095 26.4821917,7.33920095 C26.5372085,7.33920095 26.584889,7.35020414 26.6252346,7.37221085 C26.6655803,7.39421756 26.7004237,7.42539326 26.729766,7.4657389 L27.1258848,7.96088739 C26.9755056,8.13694106 26.80679,8.28456719 26.619733,8.4037702 C26.4326759,8.52297321 26.2373693,8.61833419 26.0338073,8.689856 C25.8302452,8.7613778 25.6230185,8.81180909 25.4121208,8.84115137 C25.2012232,8.87049365 24.9967473,8.88516457 24.7986869,8.88516457 C24.4062339,8.88516457 24.0412948,8.82006236 23.7038585,8.689856 C23.3664223,8.55964963 23.0730039,8.36709381 22.8235946,8.11218276 C22.5741852,7.85727171 22.3779616,7.54184693 22.234918,7.16589898 C22.0918744,6.78995102 22.0203537,6.3544081 22.0203537,5.85925713 C22.0203537,5.47413971 22.0827051,5.11195138 22.2074098,4.77268128 C22.3321145,4.43341117 22.5109163,4.13815891 22.7438206,3.88691565 C22.976725,3.63567238 23.260974,3.43669803 23.5965764,3.28998663 C23.9321787,3.14327524 24.3108718,3.06992064 24.7326671,3.06992064 Z M24.7601753,4.04371267 C24.3640545,4.04371267 24.0541314,4.15557843 23.8303965,4.37931331 C23.6066616,4.60304819 23.4636201,4.92030683 23.4012678,5.33109874 L25.9540333,5.33109874 C25.9540333,5.15504506 25.9301931,4.98908029 25.8825119,4.83319943 C25.8348307,4.67731857 25.7614761,4.54069563 25.6624459,4.42332651 C25.5634157,4.30595739 25.4387129,4.21334721 25.2883337,4.14549319 C25.1379545,4.07763917 24.9619035,4.04371267 24.7601753,4.04371267 Z M32.2479208,4.35180506 C32.2075752,4.40315405 32.1681471,4.44349908 32.1296353,4.47284136 C32.0911236,4.50218364 32.0351907,4.51685456 31.961835,4.51685456 C31.8921471,4.51685456 31.8242941,4.49576511 31.758274,4.45358558 C31.6922538,4.41140606 31.6133976,4.36372557 31.521703,4.31054269 C31.4300084,4.2573598 31.3208934,4.20967932 31.1943549,4.16749979 C31.0678163,4.12532026 30.9110208,4.10423082 30.7239638,4.10423082 C30.4855578,4.10423082 30.2764972,4.14732664 30.0967757,4.23351959 C29.9170542,4.31971253 29.7675943,4.44349842 29.6483912,4.60488096 C29.5291882,4.76626349 29.4402458,4.96157011 29.3815612,5.19080667 C29.3228767,5.42004323 29.2935348,5.67953512 29.2935348,5.96929013 C29.2935348,6.27004849 29.3256275,6.53779278 29.3898137,6.77253101 C29.4539999,7.00726925 29.5466101,7.20440973 29.667647,7.36395837 C29.7886839,7.52350702 29.9353931,7.64454211 30.107779,7.72706727 C30.2801649,7.80959243 30.4745546,7.85085439 30.6909539,7.85085439 C30.9073532,7.85085439 31.0824873,7.82426335 31.2163615,7.77108047 C31.3502356,7.71789758 31.4630183,7.65921391 31.5547129,7.59502767 C31.6464075,7.53084143 31.7261807,7.47215775 31.7940347,7.41897487 C31.8618887,7.36579199 31.9379941,7.33920095 32.0223532,7.33920095 C32.1323867,7.33920095 32.2149106,7.38137984 32.2699274,7.4657389 L32.6605446,7.96088739 C32.5101654,8.13694106 32.3469514,8.28456719 32.1708977,8.4037702 C31.994844,8.52297321 31.8123745,8.61833419 31.6234835,8.689856 C31.4345926,8.7613778 31.239286,8.81180909 31.0375578,8.84115137 C30.8358297,8.87049365 30.6359384,8.88516457 30.437878,8.88516457 C30.0894384,8.88516457 29.7611766,8.82006236 29.4530827,8.689856 C29.1449887,8.55964963 28.8763275,8.36984461 28.647091,8.12043523 C28.4178544,7.87102586 28.2363018,7.56568734 28.1024276,7.20441053 C27.9685535,6.84313371 27.9016174,6.43143103 27.9016174,5.96929013 C27.9016174,5.55483043 27.961218,5.17063572 28.080421,4.81669448 C28.199624,4.46275323 28.3747581,4.15649778 28.6058286,3.89791894 C28.836899,3.63934011 29.122982,3.43669803 29.464086,3.28998663 C29.80519,3.14327524 30.1976371,3.06992064 30.641439,3.06992064 C31.0632343,3.06992064 31.4327581,3.13777364 31.7500215,3.27348168 C32.0672849,3.40918973 32.3524509,3.60357941 32.6055281,3.85665657 L32.2479208,4.35180506 Z M35.9395279,3.06992064 C36.3613232,3.06992064 36.743684,3.13777364 37.0866219,3.27348168 C37.4295598,3.40918973 37.7220612,3.60174555 37.964135,3.85115492 C38.2062088,4.1005643 38.3932631,4.40498588 38.5253033,4.7644288 C38.6573436,5.12387173 38.7233627,5.52548815 38.7233627,5.96929013 C38.7233627,6.41675989 38.6573436,6.82021018 38.5253033,7.1796531 C38.3932631,7.53909603 38.2062088,7.84535147 37.964135,8.09842863 C37.7220612,8.35150579 37.4295598,8.54589548 37.0866219,8.68160352 C36.743684,8.81731156 36.3613232,8.88516457 35.9395279,8.88516457 C35.5177326,8.88516457 35.1344548,8.81731156 34.7896831,8.68160352 C34.4449113,8.54589548 34.150576,8.35150579 33.9066683,8.09842863 C33.6627606,7.84535147 33.4738725,7.53909603 33.3399983,7.1796531 C33.2061242,6.82021018 33.1391881,6.41675989 33.1391881,5.96929013 C33.1391881,5.52548815 33.2061242,5.12387173 33.3399983,4.7644288 C33.4738725,4.40498588 33.6627606,4.1005643 33.9066683,3.85115492 C34.150576,3.60174555 34.4449113,3.40918973 34.7896831,3.27348168 C35.1344548,3.13777364 35.5177326,3.06992064 35.9395279,3.06992064 Z M35.9395279,7.83985109 C36.4090044,7.83985109 36.7565218,7.6821387 36.9820905,7.3667092 C37.2076593,7.05127969 37.320442,6.58914573 37.320442,5.98029343 C37.320442,5.37144113 37.2076593,4.90747329 36.9820905,4.58837601 C36.7565218,4.26927872 36.4090044,4.10973247 35.9395279,4.10973247 C35.4627158,4.10973247 35.1106138,4.27019565 34.8832111,4.59112683 C34.6558084,4.91205801 34.5421088,5.37510891 34.5421088,5.98029343 C34.5421088,6.58547794 34.6558084,7.04669498 34.8832111,7.36395837 C35.1106138,7.68122177 35.4627158,7.83985109 35.9395279,7.83985109 Z M39.7851812,8.80263982 L39.7851812,3.15794704 L40.5829204,3.15794704 C40.7222962,3.15794704 40.8194911,3.18362114 40.8745078,3.23497013 C40.9295246,3.28631912 40.9662019,3.37434464 40.9845408,3.49904933 L41.0670656,4.18125391 C41.2687938,3.83281435 41.5053623,3.5577346 41.7767784,3.35600643 C42.0481945,3.15427826 42.3526161,3.05341569 42.6900523,3.05341569 C42.968804,3.05341569 43.1998709,3.11760096 43.3832602,3.24597343 L43.2072074,4.26377866 C43.196204,4.32979879 43.1723638,4.37656235 43.1356859,4.40407073 C43.0990081,4.43157912 43.0494937,4.44533311 42.9871414,4.44533311 C42.9321246,4.44533311 42.8569362,4.43249605 42.7615737,4.40682156 C42.6662113,4.38114706 42.5396747,4.36831001 42.3819599,4.36831001 C42.0995405,4.36831001 41.8574703,4.44624927 41.6557421,4.60213013 C41.4540139,4.75801099 41.2834645,4.98632718 41.1440887,5.28708554 L41.1440887,8.80263982 L39.7851812,8.80263982 Z M48.2522203,8.80263982 C48.0761667,8.80263982 47.9606332,8.7201159 47.9056164,8.55506557 L47.7955834,8.01040224 C47.6782143,8.14244249 47.5553453,8.26164371 47.4269728,8.36800948 C47.2986004,8.47437524 47.1601436,8.56606849 47.0115983,8.64309197 C46.863053,8.72011546 46.7035067,8.77971607 46.5329547,8.82189559 C46.3624027,8.86407512 46.1780993,8.88516457 45.9800389,8.88516457 C45.671945,8.88516457 45.3895298,8.82097929 45.1327848,8.69260682 C44.8760399,8.56423435 44.6550592,8.37809706 44.469836,8.13418936 C44.2846129,7.89028166 44.1415714,7.58861087 44.0407073,7.22916795 C43.9398433,6.86972503 43.889412,6.45893928 43.889412,5.99679838 C43.889412,5.57867089 43.9462618,5.18989152 44.0599631,4.8304486 C44.1736645,4.47100568 44.3368784,4.15924863 44.54961,3.89516812 C44.7623415,3.6310876 45.0172487,3.4247778 45.3143393,3.27623251 C45.6114299,3.12768722 45.9451933,3.05341569 46.3156396,3.05341569 C46.6310691,3.05341569 46.9006472,3.10384697 47.1243821,3.20471106 C47.348117,3.30557514 47.5480083,3.44036422 47.7240619,3.60908233 L47.7240619,0.627188087 L49.0829695,0.627188087 L49.0829695,8.80263982 L48.2522203,8.80263982 Z M46.4421775,7.80684119 C46.724597,7.80684119 46.9648333,7.74815751 47.1628937,7.63078839 C47.360954,7.51341928 47.5480083,7.34653756 47.7240619,7.13013825 L47.7240619,4.59937931 C47.570015,4.41232227 47.4022163,4.280284 47.220661,4.20326051 C47.0391056,4.12623703 46.843799,4.08772587 46.6347353,4.08772587 C46.4293393,4.08772587 46.243202,4.12623703 46.0763178,4.20326051 C45.9094336,4.280284 45.768226,4.39673442 45.6526908,4.55261528 C45.5371555,4.70849614 45.4482131,4.90655356 45.3858607,5.14679347 C45.3235084,5.38703338 45.2923327,5.67036552 45.2923327,5.99679838 C45.2923327,6.32689902 45.3189237,6.60656343 45.3721066,6.83579998 C45.4252895,7.06503654 45.5013949,7.25209077 45.6004251,7.39696827 C45.6994553,7.54184578 45.8204904,7.64637608 45.963534,7.71056232 C46.1065776,7.77474855 46.2661238,7.80684119 46.4421775,7.80684119 Z M51.9988439,3.15794704 L51.9988439,8.80263982 L50.6399364,8.80263982 L50.6399364,3.15794704 L51.9988439,3.15794704 Z M52.202405,1.51295372 C52.202405,1.63032284 52.1785647,1.74035473 52.1308835,1.84305271 C52.0832023,1.94575069 52.019934,2.03561007 51.9410766,2.11263356 C51.8622192,2.18965704 51.769609,2.25109152 51.6632433,2.29693883 C51.5568775,2.34278614 51.4431779,2.36570945 51.322141,2.36570945 C51.2047719,2.36570945 51.093823,2.34278614 50.9892912,2.29693883 C50.8847593,2.25109152 50.793983,2.18965704 50.7169595,2.11263356 C50.639936,2.03561007 50.5785015,1.94575069 50.5326542,1.84305271 C50.4868069,1.74035473 50.4638836,1.63032284 50.4638836,1.51295372 C50.4638836,1.39191682 50.4868069,1.27821719 50.5326542,1.17185143 C50.5785015,1.06548566 50.639936,0.973792415 50.7169595,0.896768932 C50.793983,0.819745448 50.8847593,0.758310972 50.9892912,0.71246366 C51.093823,0.666616349 51.2047719,0.643693037 51.322141,0.643693037 C51.4431779,0.643693037 51.5568775,0.666616349 51.6632433,0.71246366 C51.769609,0.758310972 51.8622192,0.819745448 51.9410766,0.896768932 C52.019934,0.973792415 52.0832023,1.06548566 52.1308835,1.17185143 C52.1785647,1.27821719 52.202405,1.39191682 52.202405,1.51295372 Z M53.5338042,8.80263982 L53.5338042,3.15794704 L54.3645534,3.15794704 C54.540607,3.15794704 54.6561405,3.24047096 54.7111573,3.40552128 L54.8046853,3.85115492 C54.9183867,3.7337858 55.0385048,3.62742164 55.1650434,3.53205923 C55.291582,3.43669682 55.4254541,3.3541729 55.5666639,3.28448498 C55.7078736,3.21479707 55.8591674,3.16161499 56.02055,3.12493714 C56.1819325,3.08825929 56.3579835,3.06992064 56.5487084,3.06992064 C56.8568023,3.06992064 57.1300482,3.12218579 57.3684542,3.22671766 C57.6068602,3.33124953 57.8058346,3.47795873 57.9653832,3.66684965 C58.1249319,3.85574057 58.2459669,4.08130596 58.3284921,4.34355259 C58.4110173,4.60579921 58.4522792,4.89463294 58.4522792,5.21006244 L58.4522792,8.80263982 L57.0933717,8.80263982 L57.0933717,5.21006244 C57.0933717,4.86529066 57.0135986,4.59846331 56.8540499,4.40957238 C56.6945013,4.22068146 56.4551819,4.12623742 56.1360846,4.12623742 C55.9013464,4.12623742 55.6812826,4.1794195 55.4758866,4.28578526 C55.2704907,4.39215102 55.076101,4.53702636 54.8927117,4.7204156 L54.8927117,8.80263982 L53.5338042,8.80263982 Z M61.7422659,3.05891734 C61.9843397,3.05891734 62.2117389,3.08367451 62.4244704,3.13318961 C62.637202,3.18270471 62.8315917,3.25514237 63.0076453,3.35050478 L64.630632,3.35050478 L64.630632,3.85665657 C64.630632,3.94101562 64.6086257,4.00703476 64.5646122,4.05471597 C64.5205988,4.10239717 64.4454104,4.13540674 64.3390446,4.15374566 L63.8328928,4.24727371 C63.8695707,4.34263612 63.8979956,4.44349869 63.9181684,4.54986446 C63.9383412,4.65623022 63.9484275,4.76809598 63.9484275,4.8854651 C63.9484275,5.16421675 63.8924946,5.41637319 63.7806271,5.64194196 C63.6687597,5.86751073 63.514715,6.05914962 63.3184885,6.21686437 C63.1222621,6.37457912 62.8893612,6.49653114 62.619779,6.58272409 C62.3501968,6.66891704 62.0576954,6.71201286 61.7422659,6.71201286 C61.5295343,6.71201286 61.3223076,6.69184035 61.1205794,6.65149471 C60.9445257,6.75786048 60.8565002,6.8770617 60.8565002,7.00910196 C60.8565002,7.12280329 60.9087654,7.20624414 61.0132972,7.25942703 C61.1178291,7.31260991 61.255369,7.35020414 61.425921,7.37221085 C61.596473,7.39421756 61.7899457,7.40797155 62.006345,7.41347322 C62.2227444,7.4189749 62.444642,7.43089502 62.6720447,7.44923395 C62.8994474,7.46757287 63.121345,7.49966551 63.3377443,7.54551282 C63.5541436,7.59136013 63.7476164,7.6637978 63.9181684,7.76282799 C64.0887204,7.86185818 64.2262603,7.99664726 64.3307921,8.16719926 C64.435324,8.33775126 64.4875891,8.55689812 64.4875891,8.82464642 C64.4875891,9.07405579 64.4261547,9.31612597 64.3032839,9.5508642 C64.1804131,9.78560244 64.0025282,9.99466304 63.7696238,10.1780523 C63.5367195,10.3614415 63.2515535,10.5090677 62.9141173,10.6209351 C62.5766811,10.7328025 62.1915694,10.7887354 61.7587708,10.7887354 C61.32964,10.7887354 60.9573654,10.7474735 60.6419359,10.6649483 C60.3265064,10.5824231 60.0651806,10.4723912 59.8579508,10.3348493 C59.6507209,10.1973074 59.4957593,10.0386781 59.3930614,9.8589566 C59.2903634,9.67923514 59.2390152,9.49218091 59.2390152,9.29778831 C59.2390152,9.03370779 59.3197052,8.81181013 59.4810878,8.63208867 C59.6424703,8.45236721 59.8662018,8.30932574 60.152289,8.20295998 C60.0129132,8.1259365 59.9010474,8.02324006 59.8166884,7.89486759 C59.7323293,7.76649512 59.6901504,7.5996134 59.6901504,7.39421745 C59.6901504,7.30985839 59.7048214,7.22274981 59.7341636,7.13288908 C59.7635059,7.04302835 59.8084356,6.9540859 59.8689541,6.86605906 C59.9294725,6.77803222 60.0055779,6.69459136 60.0972725,6.61573399 C60.1889672,6.53687661 60.2971652,6.46627281 60.4218699,6.40392047 C60.1357827,6.2498735 59.9111342,6.04448063 59.7479178,5.78773568 C59.5847013,5.53099074 59.5030944,5.23023688 59.5030944,4.8854651 C59.5030944,4.60671344 59.5590272,4.35455701 59.6708947,4.12898824 C59.7827621,3.90341947 59.9386406,3.71086365 60.1385349,3.551315 C60.3384292,3.39176636 60.5749978,3.26981434 60.8482477,3.18545528 C61.1214977,3.10109623 61.4195008,3.05891734 61.7422659,3.05891734 Z M63.233213,9.05571571 C63.233213,8.94568217 63.2002034,8.85582278 63.1341833,8.78613487 C63.0681631,8.71644696 62.9783038,8.66234794 62.8646024,8.6238362 C62.7509011,8.58532446 62.6179459,8.55689955 62.4657328,8.53856062 C62.3135197,8.5202217 62.1521396,8.50646771 61.9815876,8.49729825 C61.8110356,8.48812879 61.6349846,8.47895946 61.4534292,8.46979 C61.2718739,8.46062054 61.0967398,8.44503269 60.9280217,8.42302598 C60.7739747,8.50738503 60.6501888,8.60733067 60.5566603,8.7228659 C60.4631318,8.83840112 60.4163682,8.97135633 60.4163682,9.12173551 C60.4163682,9.22076571 60.4411254,9.31337589 60.4906405,9.39956883 C60.5401556,9.48576178 60.6190118,9.56003331 60.7272115,9.62238565 C60.8354111,9.684738 60.9757018,9.73333542 61.1480877,9.76817937 C61.3204736,9.80302333 61.531368,9.82044505 61.7807774,9.82044505 C62.0338546,9.82044505 62.2520845,9.80118947 62.4354737,9.76267772 C62.618863,9.72416598 62.7701568,9.6709839 62.8893599,9.60312988 C63.0085629,9.53527586 63.0956715,9.4545858 63.1506882,9.36105728 C63.205705,9.26752877 63.233213,9.16574926 63.233213,9.05571571 Z M61.7422659,5.84275218 C61.910984,5.84275218 62.0576932,5.81982887 62.1823978,5.77398156 C62.3071025,5.72813424 62.4107159,5.6648659 62.4932411,5.58417464 C62.5757662,5.50348337 62.6381176,5.40628852 62.6802972,5.29258719 C62.7224767,5.17888586 62.7435661,5.05418304 62.7435661,4.918475 C62.7435661,4.63972334 62.6601253,4.41874262 62.4932411,4.25552619 C62.3263569,4.09230976 62.0760343,4.01070277 61.7422659,4.01070277 C61.4084974,4.01070277 61.1581749,4.09230976 60.9912906,4.25552619 C60.8244064,4.41874262 60.7409656,4.63972334 60.7409656,4.918475 C60.7409656,5.05051526 60.762055,5.17338421 60.8042345,5.28708554 C60.8464141,5.40078687 60.9087655,5.49889865 60.9912906,5.58142381 C61.0738158,5.66394897 61.1783461,5.72813424 61.3048847,5.77398156 C61.4314233,5.81982887 61.5772155,5.84275218 61.7422659,5.84275218 Z" id="Recording"></path>
            </g>
            <g opacity="0.15" transform="translate(42.912869, 16.504950)" fill="#F0F0F1" fill-rule="nonzero" id="Shape">
                <polygon points="63.3751795 0.385115492 47.1151728 0.385115492 0.221979613 161.583457 63.3751795 161.583457"></polygon>
            </g>
        </g>
    </g>
</svg>